<svg width="450" height="250" viewBox="0 0 450 250" fill="none" xmlns="http://www.w3.org/2000/svg">
<path d="M442.115 3.849C440.053 1.538 437.022 0 432.995 0C403.965 0.005 41.8129 0.132001 12.8179 1.706C7.49888 1.998 3.92188 4.895 2.04488 8.633C0.655884 10.568 -0.133116 13.094 0.0208842 16.214C1.45888 44.803 5.03588 31.522 1.81088 59.941C1.05188 66.606 4.86288 70.48 9.74588 71.702C11.5229 72.6 13.6819 73.055 16.3139 72.738C44.6619 69.341 406.29 67.589 434.783 65.91C442.588 65.451 446.655 59.41 447.046 53.314C447.351 52.202 447.574 51.021 447.585 49.696C447.717 25.007 444.142 42.194 448.758 17.905C449.986 11.394 446.676 6.433 442.115 3.849ZM28.7929 45.79C29.0059 33.763 25.9059 26.743 25.9059 26.743C46.7689 25.9 400.785 25.661 421.671 25.621C421.671 25.621 418.654 34.086 422.189 41.076C402.075 42.302 48.8339 43.711 28.7929 45.79Z" fill="#D4AB7C"/>
<path d="M446.965 97.03C445.091 93.293 441.511 90.396 436.194 90.104C407.199 88.53 45.0429 88.403 16.0169 88.398C11.9879 88.398 8.95591 89.937 6.89191 92.247C2.33691 94.832 -0.977093 99.798 0.261907 106.309C4.87291 130.597 1.30091 113.405 1.42991 138.102C1.43491 139.422 1.65891 140.605 1.97091 141.717C2.36191 147.821 6.42691 153.854 14.2319 154.311C42.7219 155.992 404.355 157.744 432.701 161.141C435.337 161.46 437.494 160.998 439.271 160.105C444.157 158.881 447.97 155.011 447.209 148.344C443.989 119.925 447.564 133.206 449.001 104.617C449.144 101.491 448.356 98.97 446.965 97.03ZM420.209 134.19C400.166 132.108 46.9249 130.697 26.8129 129.478C30.3469 122.488 27.3309 114.023 27.3309 114.023C48.2139 114.064 402.233 114.302 423.094 115.145C423.099 115.14 420.001 122.161 420.209 134.19Z" fill="#D4AB7C"/>
<path d="M442.115 180.643C440.053 178.332 437.022 176.794 432.995 176.794C403.965 176.799 41.8129 176.926 12.8179 178.5C7.49888 178.794 3.92188 181.688 2.04488 185.427C0.655884 187.362 -0.133116 189.885 0.0208842 193.008C1.45888 221.597 5.03588 208.318 1.81088 236.735C1.05188 243.397 4.86288 247.277 9.74588 248.496C11.5229 249.394 13.6819 249.847 16.3139 249.531C44.6619 246.135 406.29 244.383 434.783 242.707C442.588 242.245 446.655 236.207 447.046 230.108C447.351 228.996 447.574 227.818 447.585 226.488C447.717 201.799 444.142 218.987 448.758 194.699C449.986 188.189 446.676 183.228 442.115 180.643ZM28.7929 222.588C29.0059 210.559 25.9059 203.535 25.9059 203.535C46.7689 202.692 400.785 202.459 421.671 202.418C421.671 202.418 418.654 210.878 422.189 217.865C402.075 219.094 48.8339 220.506 28.7929 222.588Z" fill="#D4AB7C"/>
</svg>
