<svg width="31" height="33" viewBox="0 0 31 33" fill="none" xmlns="http://www.w3.org/2000/svg">
  <path d="M29.044 24.737L21.245 16.171C21.218 16.14 21.217 16.05 21.245 16.022L29.044 7.451C30.704 5.624 30.57 2.785 28.745 1.122C27.949 0.399 26.885 0.001 25.748 0.001C24.453 0.001 23.238 0.518 22.415 1.42L15.118 9.439L7.82199 1.42C6.99999 0.518 5.78699 0 4.49299 0C3.35499 0 2.28999 0.398 1.49199 1.122C-0.33501 2.785 -0.46901 5.624 1.19399 7.453L8.99099 16.019C9.01799 16.05 9.01899 16.141 8.99099 16.17L1.19199 24.739C-0.46901 26.567 -0.33501 29.406 1.49199 31.069C2.28699 31.793 3.35099 32.19 4.48899 32.19C5.78399 32.19 6.99899 31.671 7.82199 30.771L15.118 22.751L22.415 30.769C23.262 31.701 24.47 32.235 25.728 32.235C26.844 32.235 27.916 31.821 28.746 31.068C30.57 29.405 30.704 26.566 29.044 24.737ZM27.227 29.396C26.393 30.15 24.839 30.079 24.088 29.249L16.715 21.148C16.296 20.684 15.73 20.43 15.119 20.43C14.509 20.43 13.943 20.684 13.523 21.145L6.14999 29.249C5.74999 29.689 5.14899 29.942 4.49799 29.942C3.92899 29.943 3.40099 29.749 3.01299 29.396C2.10799 28.572 2.04099 27.165 2.86599 26.258L10.664 17.688C11.476 16.793 11.478 15.393 10.664 14.498L2.86599 5.931C2.04199 5.025 2.10799 3.617 3.01199 2.793C3.84499 2.036 5.39999 2.112 6.15099 2.939L13.524 11.04C14.329 11.93 15.909 11.93 16.715 11.042L24.086 2.94C24.841 2.111 26.397 2.036 27.225 2.792C27.663 3.19 27.92 3.736 27.948 4.329C27.975 4.923 27.772 5.491 27.374 5.929L19.575 14.5C18.763 15.394 18.763 16.795 19.575 17.69L27.374 26.256C28.197 27.164 28.132 28.571 27.227 29.396Z" fill="#D4AB7C"/>
</svg>
