<svg width="900" height="864" viewBox="0 0 900 864" fill="none" xmlns="http://www.w3.org/2000/svg">
<g clip-path="url(#clip0_3_8)">
<mask id="path-1-outside-1_3_8" maskUnits="userSpaceOnUse" x="-857" y="377" width="1654" height="450" fill="black">
<rect fill="white" x="-857" y="377" width="1654" height="450"/>
<path d="M-789.984 488.339V497.582C-795.496 497.89 -799.712 499.122 -802.63 501.279C-805.386 503.128 -807.251 506.825 -808.224 512.37C-809.197 517.608 -809.683 525.926 -809.683 537.326V766.544C-809.683 777.635 -809.197 785.954 -808.224 791.499C-807.251 797.045 -805.386 800.742 -802.63 802.59C-799.712 804.131 -795.496 804.901 -789.984 804.901H-772.23C-764.61 804.901 -758.449 803.361 -753.747 800.28C-748.883 797.199 -745.072 792.423 -742.316 785.954C-739.398 779.176 -737.209 770.241 -735.75 759.15C-734.291 748.059 -733.156 734.503 -732.345 718.482H-726.751C-727.238 728.033 -727.481 740.664 -727.481 756.377C-727.481 762.231 -727.4 770.703 -727.238 781.794C-726.913 792.577 -726.427 803.823 -725.779 815.53C-734.047 814.914 -743.37 814.606 -753.747 814.606C-764.123 814.298 -773.365 814.144 -781.472 814.144C-785.039 814.144 -789.659 814.144 -795.334 814.144C-800.847 814.144 -806.846 814.298 -813.331 814.606C-819.816 814.606 -826.383 814.76 -833.03 815.068C-839.678 815.068 -846.001 815.222 -852 815.53V806.287C-846.487 805.671 -842.353 804.439 -839.597 802.59C-836.678 800.742 -834.733 797.045 -833.76 791.499C-832.787 785.954 -832.301 777.635 -832.301 766.544V537.326C-832.301 525.926 -832.787 517.608 -833.76 512.37C-834.733 506.825 -836.678 503.128 -839.597 501.279C-842.353 499.122 -846.487 497.89 -852 497.582V488.339C-848.595 488.647 -844.136 488.956 -838.624 489.264C-833.111 489.572 -827.193 489.726 -820.87 489.726C-815.196 489.726 -809.602 489.572 -804.089 489.264C-798.415 488.956 -793.713 488.647 -789.984 488.339ZM-647.494 478.172C-645.062 478.172 -643.036 480.021 -641.414 483.718C-639.63 487.415 -638.738 492.653 -638.738 499.431C-638.738 509.598 -639.063 519.148 -639.711 528.083C-640.36 536.709 -641.251 546.568 -642.387 557.659C-643.36 568.443 -644.495 582.307 -645.792 599.251H-649.197C-650.332 583.231 -651.467 569.829 -652.602 559.046C-653.736 547.955 -654.628 537.942 -655.277 529.007C-655.925 519.764 -656.25 510.06 -656.25 499.893C-656.25 493.115 -655.439 487.877 -653.818 484.18C-652.034 480.483 -649.926 478.48 -647.494 478.172ZM-444.31 488.339C-444.959 499.122 -445.445 509.597 -445.769 519.764C-445.932 529.931 -446.013 537.634 -446.013 542.871C-446.013 548.417 -445.932 553.808 -445.769 559.046C-445.607 563.975 -445.445 568.134 -445.283 571.523H-450.877C-451.85 553.346 -453.228 539.02 -455.011 528.545C-456.795 517.762 -459.875 510.214 -464.253 505.9C-468.468 501.279 -474.873 498.968 -483.466 498.968H-503.651C-509.164 498.968 -513.379 499.893 -516.298 501.741C-519.054 503.282 -520.919 506.825 -521.891 512.37C-522.864 517.608 -523.351 525.926 -523.351 537.326V766.544C-523.351 777.635 -522.864 785.954 -521.891 791.499C-520.919 797.045 -519.054 800.742 -516.298 802.59C-513.379 804.131 -509.164 804.901 -503.651 804.901H-485.898C-475.683 804.901 -467.982 802.282 -462.794 797.045C-457.443 791.807 -453.633 783.335 -451.363 771.627C-448.931 759.612 -447.148 743.437 -446.013 723.103H-440.419C-440.905 731.422 -441.149 742.513 -441.149 756.377C-441.149 762.231 -441.068 770.703 -440.905 781.794C-440.581 792.577 -440.095 803.823 -439.446 815.53C-447.715 814.914 -457.038 814.606 -467.414 814.606C-477.791 814.298 -487.033 814.144 -495.139 814.144C-498.706 814.144 -503.327 814.144 -509.002 814.144C-514.514 814.144 -520.513 814.298 -526.999 814.606C-533.484 814.606 -540.051 814.76 -546.698 815.068C-553.346 815.068 -559.669 815.222 -565.668 815.53V806.287C-560.155 805.671 -556.021 804.439 -553.264 802.59C-550.346 800.742 -548.4 797.045 -547.428 791.499C-546.455 785.954 -545.968 777.635 -545.968 766.544V537.326C-545.968 525.926 -546.455 517.608 -547.428 512.37C-548.4 506.825 -550.346 503.128 -553.264 501.279C-556.021 499.122 -560.155 497.89 -565.668 497.582V488.339C-559.669 488.647 -553.346 488.956 -546.698 489.264C-540.051 489.264 -533.484 489.418 -526.999 489.726C-520.513 489.726 -514.514 489.726 -509.002 489.726C-503.327 489.726 -498.706 489.726 -495.139 489.726C-487.681 489.726 -479.25 489.726 -469.846 489.726C-460.28 489.418 -451.768 488.956 -444.31 488.339ZM-486.141 646.389C-486.141 646.389 -486.141 647.93 -486.141 651.01C-486.141 654.091 -486.141 655.632 -486.141 655.632H-530.647C-530.647 655.632 -530.647 654.091 -530.647 651.01C-530.647 647.93 -530.647 646.389 -530.647 646.389H-486.141ZM-479.088 585.387C-479.737 602.949 -480.061 616.35 -480.061 625.593C-479.899 634.836 -479.818 643.308 -479.818 651.01C-479.818 658.713 -479.737 667.185 -479.574 676.428C-479.412 685.671 -479.007 699.072 -478.358 716.633H-483.952C-484.601 706.775 -485.411 697.224 -486.384 687.981C-487.195 678.43 -489.14 670.728 -492.221 664.874C-495.139 658.713 -500.165 655.632 -507.299 655.632V646.389C-501.949 646.389 -497.896 644.387 -495.139 640.381C-492.221 636.068 -490.113 630.677 -488.816 624.207C-487.519 617.737 -486.627 611.113 -486.141 604.335C-485.654 597.249 -485.168 590.933 -484.682 585.387H-479.088ZM-216.097 488.339V497.582C-221.609 497.89 -225.825 499.431 -228.743 502.203C-231.499 504.976 -233.364 509.443 -234.337 515.605C-235.31 521.767 -235.796 530.548 -235.796 541.947V817.841C-236.769 817.841 -237.742 817.841 -238.714 817.841C-239.525 817.841 -240.417 817.841 -241.39 817.841L-343.534 517.916V761.923C-343.534 773.014 -343.048 781.794 -342.075 788.264C-340.94 794.426 -338.832 798.893 -335.752 801.666C-332.509 804.131 -327.726 805.671 -321.403 806.287V815.53C-324.321 814.914 -328.131 814.606 -332.833 814.606C-337.535 814.298 -341.994 814.144 -346.209 814.144C-350.263 814.144 -354.397 814.298 -358.613 814.606C-362.666 814.606 -366.071 814.914 -368.827 815.53V806.287C-363.315 805.671 -359.18 804.131 -356.424 801.666C-353.505 798.893 -351.56 794.426 -350.587 788.264C-349.614 781.794 -349.128 773.014 -349.128 761.923V537.326C-349.128 525.926 -349.614 517.608 -350.587 512.37C-351.56 506.825 -353.505 503.128 -356.424 501.279C-359.18 499.122 -363.315 497.89 -368.827 497.582V488.339C-366.071 488.647 -362.666 488.956 -358.613 489.264C-354.397 489.572 -350.263 489.726 -346.209 489.726C-342.642 489.726 -339.238 489.572 -335.995 489.264C-332.752 488.956 -329.834 488.647 -327.24 488.339L-241.39 739.74V541.947C-241.39 530.548 -241.957 521.767 -243.092 515.605C-244.065 509.443 -246.173 504.976 -249.415 502.203C-252.496 499.431 -257.198 497.89 -263.521 497.582V488.339C-260.602 488.647 -256.792 488.956 -252.09 489.264C-247.226 489.572 -242.768 489.726 -238.714 489.726C-234.499 489.726 -230.364 489.572 -226.311 489.264C-222.096 488.956 -218.691 488.647 -216.097 488.339ZM-3.76886 488.339V497.582C-6.84941 498.814 -10.1732 502.357 -13.7402 508.211C-17.145 514.065 -20.2255 523.924 -22.9818 537.788L-80.1341 817.841C-80.4583 817.841 -80.7826 817.841 -81.1069 817.841C-81.4312 817.841 -81.7554 817.841 -82.0797 817.841C-82.404 817.841 -82.7283 817.841 -83.0526 817.841C-83.3768 817.841 -83.7011 817.841 -84.0253 817.841L-143.366 527.159C-145.798 515.451 -148.555 507.749 -151.635 504.052C-154.716 500.047 -157.553 497.89 -160.147 497.582V488.339C-156.905 488.647 -152.932 488.956 -148.231 489.264C-143.367 489.572 -138.665 489.726 -134.125 489.726C-127.802 489.726 -121.884 489.572 -116.371 489.264C-110.859 488.956 -106.4 488.647 -102.995 488.339V497.582C-108.508 497.89 -112.723 499.122 -115.642 501.279C-118.398 503.436 -119.938 507.287 -120.262 512.832C-120.424 518.07 -119.452 525.926 -117.344 536.401L-72.1085 764.233L-75.9997 772.09L-33.6827 563.205C-30.2778 546.568 -28.6565 533.628 -28.8187 524.386C-28.9808 514.835 -30.8454 508.057 -34.4123 504.052C-37.9793 500.047 -43.1675 497.89 -49.9771 497.582V488.339C-45.2752 488.647 -40.4923 488.956 -35.6283 489.264C-30.7643 489.572 -26.2245 489.726 -22.009 489.726C-17.7935 489.726 -14.3076 489.572 -11.5513 489.264C-8.79506 488.956 -6.20087 488.647 -3.76886 488.339ZM129.33 481.869C144.733 481.869 158.19 488.493 169.702 501.741C181.375 514.989 190.374 534.091 196.697 559.046C203.182 583.693 206.425 613.732 206.425 649.162C206.425 683.668 203.101 713.861 196.454 739.74C189.969 765.62 180.889 785.8 169.215 800.28C157.542 814.76 144.166 822 129.087 822C113.684 822 100.146 815.376 88.4725 802.128C76.9609 788.88 67.9625 769.779 61.4772 744.824C55.1539 719.868 51.9922 689.83 51.9922 654.708C51.9922 620.202 55.3161 590.009 61.9636 564.129C68.6111 538.25 77.6905 518.07 89.2021 503.59C100.876 489.11 114.252 481.869 129.33 481.869ZM128.358 490.188C117.819 490.188 108.658 497.12 100.876 510.984C93.0933 524.848 87.0133 543.949 82.6357 568.289C78.4202 592.628 76.3124 620.818 76.3124 652.859C76.3124 685.516 78.6634 714.015 83.3653 738.354C88.2293 762.385 94.7147 781.024 102.821 794.272C111.09 807.212 120.17 813.682 130.06 813.682C140.599 813.682 149.759 806.75 157.542 792.886C165.324 779.022 171.323 759.92 175.539 735.581C179.916 710.934 182.105 682.744 182.105 651.01C182.105 618.045 179.673 589.547 174.809 565.516C170.107 541.485 163.703 522.999 155.596 510.06C147.489 496.812 138.41 490.188 128.358 490.188ZM338.338 488.339V497.582C332.825 497.89 328.61 499.122 325.691 501.279C322.935 503.128 321.07 506.825 320.097 512.37C319.125 517.608 318.638 525.926 318.638 537.326V766.544C318.638 777.635 319.125 785.954 320.097 791.499C321.07 797.045 322.935 800.742 325.691 802.59C328.61 804.131 332.825 804.901 338.338 804.901H356.091C363.712 804.901 369.873 803.361 374.574 800.28C379.439 797.199 383.249 792.423 386.005 785.954C388.923 779.176 391.112 770.241 392.572 759.15C394.031 748.059 395.166 734.503 395.976 718.482H401.57C401.084 728.033 400.84 740.664 400.84 756.377C400.84 762.231 400.921 770.703 401.084 781.794C401.408 792.577 401.894 803.823 402.543 815.53C394.274 814.914 384.951 814.606 374.574 814.606C364.198 814.298 354.956 814.144 346.85 814.144C343.283 814.144 338.662 814.144 332.987 814.144C327.475 814.144 321.476 814.298 314.99 814.606C308.505 814.606 301.938 814.76 295.291 815.068C288.643 815.068 282.32 815.222 276.321 815.53V806.287C281.834 805.671 285.968 804.439 288.724 802.59C291.643 800.742 293.589 797.045 294.561 791.499C295.534 785.954 296.021 777.635 296.021 766.544V537.326C296.021 525.926 295.534 517.608 294.561 512.37C293.589 506.825 291.643 503.128 288.724 501.279C285.968 499.122 281.834 497.89 276.321 497.582V488.339C279.726 488.647 284.185 488.956 289.697 489.264C295.21 489.572 301.128 489.726 307.451 489.726C313.126 489.726 318.719 489.572 324.232 489.264C329.907 488.956 334.609 488.647 338.338 488.339ZM589.295 488.339C588.647 499.122 588.16 509.597 587.836 519.764C587.674 529.931 587.593 537.634 587.593 542.871C587.593 548.417 587.674 553.808 587.836 559.046C587.998 563.975 588.16 568.134 588.322 571.523H582.729C581.756 553.346 580.378 539.02 578.594 528.545C576.811 517.762 573.731 510.214 569.353 505.9C565.137 501.279 558.733 498.968 550.14 498.968H529.954C524.442 498.968 520.226 499.893 517.308 501.741C514.551 503.282 512.687 506.825 511.714 512.37C510.741 517.608 510.255 525.926 510.255 537.326V766.544C510.255 777.635 510.741 785.954 511.714 791.499C512.687 797.045 514.551 800.742 517.308 802.59C520.226 804.131 524.442 804.901 529.954 804.901H547.708C557.922 804.901 565.624 802.282 570.812 797.045C576.163 791.807 579.973 783.335 582.242 771.627C584.674 759.612 586.458 743.437 587.593 723.103H593.187C592.7 731.422 592.457 742.513 592.457 756.377C592.457 762.231 592.538 770.703 592.7 781.794C593.024 792.577 593.511 803.823 594.159 815.53C585.891 814.914 576.568 814.606 566.191 814.606C555.815 814.298 546.573 814.144 538.466 814.144C534.899 814.144 530.278 814.144 524.604 814.144C519.091 814.144 513.092 814.298 506.607 814.606C500.122 814.606 493.555 814.76 486.908 815.068C480.26 815.068 473.937 815.222 467.938 815.53V806.287C473.45 805.671 477.585 804.439 480.341 802.59C483.26 800.742 485.205 797.045 486.178 791.499C487.151 785.954 487.637 777.635 487.637 766.544V537.326C487.637 525.926 487.151 517.608 486.178 512.37C485.205 506.825 483.26 503.128 480.341 501.279C477.585 499.122 473.45 497.89 467.938 497.582V488.339C473.937 488.647 480.26 488.956 486.908 489.264C493.555 489.264 500.122 489.418 506.607 489.726C513.092 489.726 519.091 489.726 524.604 489.726C530.278 489.726 534.899 489.726 538.466 489.726C545.924 489.726 554.355 489.726 563.759 489.726C573.325 489.418 581.837 488.956 589.295 488.339ZM547.465 646.389C547.465 646.389 547.465 647.93 547.465 651.01C547.465 654.091 547.465 655.632 547.465 655.632H502.959C502.959 655.632 502.959 654.091 502.959 651.01C502.959 647.93 502.959 646.389 502.959 646.389H547.465ZM554.518 585.387C553.869 602.949 553.545 616.35 553.545 625.593C553.707 634.836 553.788 643.308 553.788 651.01C553.788 658.713 553.869 667.185 554.031 676.428C554.193 685.671 554.599 699.072 555.247 716.633H549.654C549.005 706.775 548.194 697.224 547.222 687.981C546.411 678.43 544.465 670.728 541.385 664.874C538.466 658.713 533.44 655.632 526.306 655.632V646.389C531.657 646.389 535.71 644.387 538.466 640.381C541.385 636.068 543.492 630.677 544.79 624.207C546.087 617.737 546.978 611.113 547.465 604.335C547.951 597.249 548.437 590.933 548.924 585.387H554.518ZM558.166 387.594C561.408 383.589 564.327 382.203 566.921 383.435C569.677 384.359 571.704 386.824 573.001 390.829C574.298 394.834 574.622 399.302 573.974 404.231C573.325 408.852 571.298 413.32 567.894 417.633C564.489 421.638 560.517 425.335 555.977 428.724C551.599 431.805 546.411 435.656 540.412 440.277C534.575 444.591 527.441 450.752 519.01 458.763L517.308 452.755C524.766 441.972 530.846 432.575 535.548 424.565C540.412 416.246 544.546 409.006 547.951 402.845C551.356 396.683 554.761 391.599 558.166 387.594ZM786.136 488.339C785.487 499.122 785.001 509.597 784.677 519.764C784.515 529.931 784.434 537.634 784.434 542.871C784.434 548.417 784.515 553.808 784.677 559.046C784.839 563.975 785.001 568.134 785.163 571.523H779.57C778.597 553.346 777.219 539.02 775.435 528.545C773.652 517.762 770.571 510.214 766.194 505.9C761.978 501.279 755.574 498.968 746.981 498.968H726.795C721.282 498.968 717.067 499.893 714.149 501.741C711.392 503.282 709.528 506.825 708.555 512.37C707.582 517.608 707.095 525.926 707.095 537.326V766.544C707.095 777.635 707.582 785.954 708.555 791.499C709.528 797.045 711.392 800.742 714.149 802.59C717.067 804.131 721.282 804.901 726.795 804.901H744.549C754.763 804.901 762.464 802.282 767.653 797.045C773.003 791.807 776.813 783.335 779.083 771.627C781.515 759.612 783.299 743.437 784.434 723.103H790.027C789.541 731.422 789.298 742.513 789.298 756.377C789.298 762.231 789.379 770.703 789.541 781.794C789.865 792.577 790.351 803.823 791 815.53C782.731 814.914 773.408 814.606 763.032 814.606C752.655 814.298 743.414 814.144 735.307 814.144C731.74 814.144 727.119 814.144 721.445 814.144C715.932 814.144 709.933 814.298 703.448 814.606C696.962 814.606 690.396 814.76 683.748 815.068C677.101 815.068 670.778 815.222 664.779 815.53V806.287C670.291 805.671 674.426 804.439 677.182 802.59C680.1 800.742 682.046 797.045 683.019 791.499C683.991 785.954 684.478 777.635 684.478 766.544V537.326C684.478 525.926 683.991 517.608 683.019 512.37C682.046 506.825 680.1 503.128 677.182 501.279C674.426 499.122 670.291 497.89 664.779 497.582V488.339C670.778 488.647 677.101 488.956 683.748 489.264C690.396 489.264 696.962 489.418 703.448 489.726C709.933 489.726 715.932 489.726 721.445 489.726C727.119 489.726 731.74 489.726 735.307 489.726C742.765 489.726 751.196 489.726 760.6 489.726C770.166 489.418 778.678 488.956 786.136 488.339ZM744.305 646.389C744.305 646.389 744.305 647.93 744.305 651.01C744.305 654.091 744.305 655.632 744.305 655.632H699.799C699.799 655.632 699.799 654.091 699.799 651.01C699.799 647.93 699.799 646.389 699.799 646.389H744.305ZM751.358 585.387C750.71 602.949 750.385 616.35 750.385 625.593C750.548 634.836 750.629 643.308 750.629 651.01C750.629 658.713 750.71 667.185 750.872 676.428C751.034 685.671 751.439 699.072 752.088 716.633H746.494C745.846 706.775 745.035 697.224 744.062 687.981C743.252 678.43 741.306 670.728 738.225 664.874C735.307 658.713 730.281 655.632 723.147 655.632V646.389C728.497 646.389 732.551 644.387 735.307 640.381C738.225 636.068 740.333 630.677 741.63 624.207C742.927 617.737 743.819 611.113 744.305 604.335C744.792 597.249 745.278 590.933 745.765 585.387H751.358Z"/>
</mask>
<path d="M-789.984 488.339V497.582C-795.496 497.89 -799.712 499.122 -802.63 501.279C-805.386 503.128 -807.251 506.825 -808.224 512.37C-809.197 517.608 -809.683 525.926 -809.683 537.326V766.544C-809.683 777.635 -809.197 785.954 -808.224 791.499C-807.251 797.045 -805.386 800.742 -802.63 802.59C-799.712 804.131 -795.496 804.901 -789.984 804.901H-772.23C-764.61 804.901 -758.449 803.361 -753.747 800.28C-748.883 797.199 -745.072 792.423 -742.316 785.954C-739.398 779.176 -737.209 770.241 -735.75 759.15C-734.291 748.059 -733.156 734.503 -732.345 718.482H-726.751C-727.238 728.033 -727.481 740.664 -727.481 756.377C-727.481 762.231 -727.4 770.703 -727.238 781.794C-726.913 792.577 -726.427 803.823 -725.779 815.53C-734.047 814.914 -743.37 814.606 -753.747 814.606C-764.123 814.298 -773.365 814.144 -781.472 814.144C-785.039 814.144 -789.659 814.144 -795.334 814.144C-800.847 814.144 -806.846 814.298 -813.331 814.606C-819.816 814.606 -826.383 814.76 -833.03 815.068C-839.678 815.068 -846.001 815.222 -852 815.53V806.287C-846.487 805.671 -842.353 804.439 -839.597 802.59C-836.678 800.742 -834.733 797.045 -833.76 791.499C-832.787 785.954 -832.301 777.635 -832.301 766.544V537.326C-832.301 525.926 -832.787 517.608 -833.76 512.37C-834.733 506.825 -836.678 503.128 -839.597 501.279C-842.353 499.122 -846.487 497.89 -852 497.582V488.339C-848.595 488.647 -844.136 488.956 -838.624 489.264C-833.111 489.572 -827.193 489.726 -820.87 489.726C-815.196 489.726 -809.602 489.572 -804.089 489.264C-798.415 488.956 -793.713 488.647 -789.984 488.339ZM-647.494 478.172C-645.062 478.172 -643.036 480.021 -641.414 483.718C-639.63 487.415 -638.738 492.653 -638.738 499.431C-638.738 509.598 -639.063 519.148 -639.711 528.083C-640.36 536.709 -641.251 546.568 -642.387 557.659C-643.36 568.443 -644.495 582.307 -645.792 599.251H-649.197C-650.332 583.231 -651.467 569.829 -652.602 559.046C-653.736 547.955 -654.628 537.942 -655.277 529.007C-655.925 519.764 -656.25 510.06 -656.25 499.893C-656.25 493.115 -655.439 487.877 -653.818 484.18C-652.034 480.483 -649.926 478.48 -647.494 478.172ZM-444.31 488.339C-444.959 499.122 -445.445 509.597 -445.769 519.764C-445.932 529.931 -446.013 537.634 -446.013 542.871C-446.013 548.417 -445.932 553.808 -445.769 559.046C-445.607 563.975 -445.445 568.134 -445.283 571.523H-450.877C-451.85 553.346 -453.228 539.02 -455.011 528.545C-456.795 517.762 -459.875 510.214 -464.253 505.9C-468.468 501.279 -474.873 498.968 -483.466 498.968H-503.651C-509.164 498.968 -513.379 499.893 -516.298 501.741C-519.054 503.282 -520.919 506.825 -521.891 512.37C-522.864 517.608 -523.351 525.926 -523.351 537.326V766.544C-523.351 777.635 -522.864 785.954 -521.891 791.499C-520.919 797.045 -519.054 800.742 -516.298 802.59C-513.379 804.131 -509.164 804.901 -503.651 804.901H-485.898C-475.683 804.901 -467.982 802.282 -462.794 797.045C-457.443 791.807 -453.633 783.335 -451.363 771.627C-448.931 759.612 -447.148 743.437 -446.013 723.103H-440.419C-440.905 731.422 -441.149 742.513 -441.149 756.377C-441.149 762.231 -441.068 770.703 -440.905 781.794C-440.581 792.577 -440.095 803.823 -439.446 815.53C-447.715 814.914 -457.038 814.606 -467.414 814.606C-477.791 814.298 -487.033 814.144 -495.139 814.144C-498.706 814.144 -503.327 814.144 -509.002 814.144C-514.514 814.144 -520.513 814.298 -526.999 814.606C-533.484 814.606 -540.051 814.76 -546.698 815.068C-553.346 815.068 -559.669 815.222 -565.668 815.53V806.287C-560.155 805.671 -556.021 804.439 -553.264 802.59C-550.346 800.742 -548.4 797.045 -547.428 791.499C-546.455 785.954 -545.968 777.635 -545.968 766.544V537.326C-545.968 525.926 -546.455 517.608 -547.428 512.37C-548.4 506.825 -550.346 503.128 -553.264 501.279C-556.021 499.122 -560.155 497.89 -565.668 497.582V488.339C-559.669 488.647 -553.346 488.956 -546.698 489.264C-540.051 489.264 -533.484 489.418 -526.999 489.726C-520.513 489.726 -514.514 489.726 -509.002 489.726C-503.327 489.726 -498.706 489.726 -495.139 489.726C-487.681 489.726 -479.25 489.726 -469.846 489.726C-460.28 489.418 -451.768 488.956 -444.31 488.339ZM-486.141 646.389C-486.141 646.389 -486.141 647.93 -486.141 651.01C-486.141 654.091 -486.141 655.632 -486.141 655.632H-530.647C-530.647 655.632 -530.647 654.091 -530.647 651.01C-530.647 647.93 -530.647 646.389 -530.647 646.389H-486.141ZM-479.088 585.387C-479.737 602.949 -480.061 616.35 -480.061 625.593C-479.899 634.836 -479.818 643.308 -479.818 651.01C-479.818 658.713 -479.737 667.185 -479.574 676.428C-479.412 685.671 -479.007 699.072 -478.358 716.633H-483.952C-484.601 706.775 -485.411 697.224 -486.384 687.981C-487.195 678.43 -489.14 670.728 -492.221 664.874C-495.139 658.713 -500.165 655.632 -507.299 655.632V646.389C-501.949 646.389 -497.896 644.387 -495.139 640.381C-492.221 636.068 -490.113 630.677 -488.816 624.207C-487.519 617.737 -486.627 611.113 -486.141 604.335C-485.654 597.249 -485.168 590.933 -484.682 585.387H-479.088ZM-216.097 488.339V497.582C-221.609 497.89 -225.825 499.431 -228.743 502.203C-231.499 504.976 -233.364 509.443 -234.337 515.605C-235.31 521.767 -235.796 530.548 -235.796 541.947V817.841C-236.769 817.841 -237.742 817.841 -238.714 817.841C-239.525 817.841 -240.417 817.841 -241.39 817.841L-343.534 517.916V761.923C-343.534 773.014 -343.048 781.794 -342.075 788.264C-340.94 794.426 -338.832 798.893 -335.752 801.666C-332.509 804.131 -327.726 805.671 -321.403 806.287V815.53C-324.321 814.914 -328.131 814.606 -332.833 814.606C-337.535 814.298 -341.994 814.144 -346.209 814.144C-350.263 814.144 -354.397 814.298 -358.613 814.606C-362.666 814.606 -366.071 814.914 -368.827 815.53V806.287C-363.315 805.671 -359.18 804.131 -356.424 801.666C-353.505 798.893 -351.56 794.426 -350.587 788.264C-349.614 781.794 -349.128 773.014 -349.128 761.923V537.326C-349.128 525.926 -349.614 517.608 -350.587 512.37C-351.56 506.825 -353.505 503.128 -356.424 501.279C-359.18 499.122 -363.315 497.89 -368.827 497.582V488.339C-366.071 488.647 -362.666 488.956 -358.613 489.264C-354.397 489.572 -350.263 489.726 -346.209 489.726C-342.642 489.726 -339.238 489.572 -335.995 489.264C-332.752 488.956 -329.834 488.647 -327.24 488.339L-241.39 739.74V541.947C-241.39 530.548 -241.957 521.767 -243.092 515.605C-244.065 509.443 -246.173 504.976 -249.415 502.203C-252.496 499.431 -257.198 497.89 -263.521 497.582V488.339C-260.602 488.647 -256.792 488.956 -252.09 489.264C-247.226 489.572 -242.768 489.726 -238.714 489.726C-234.499 489.726 -230.364 489.572 -226.311 489.264C-222.096 488.956 -218.691 488.647 -216.097 488.339ZM-3.76886 488.339V497.582C-6.84941 498.814 -10.1732 502.357 -13.7402 508.211C-17.145 514.065 -20.2255 523.924 -22.9818 537.788L-80.1341 817.841C-80.4583 817.841 -80.7826 817.841 -81.1069 817.841C-81.4312 817.841 -81.7554 817.841 -82.0797 817.841C-82.404 817.841 -82.7283 817.841 -83.0526 817.841C-83.3768 817.841 -83.7011 817.841 -84.0253 817.841L-143.366 527.159C-145.798 515.451 -148.555 507.749 -151.635 504.052C-154.716 500.047 -157.553 497.89 -160.147 497.582V488.339C-156.905 488.647 -152.932 488.956 -148.231 489.264C-143.367 489.572 -138.665 489.726 -134.125 489.726C-127.802 489.726 -121.884 489.572 -116.371 489.264C-110.859 488.956 -106.4 488.647 -102.995 488.339V497.582C-108.508 497.89 -112.723 499.122 -115.642 501.279C-118.398 503.436 -119.938 507.287 -120.262 512.832C-120.424 518.07 -119.452 525.926 -117.344 536.401L-72.1085 764.233L-75.9997 772.09L-33.6827 563.205C-30.2778 546.568 -28.6565 533.628 -28.8187 524.386C-28.9808 514.835 -30.8454 508.057 -34.4123 504.052C-37.9793 500.047 -43.1675 497.89 -49.9771 497.582V488.339C-45.2752 488.647 -40.4923 488.956 -35.6283 489.264C-30.7643 489.572 -26.2245 489.726 -22.009 489.726C-17.7935 489.726 -14.3076 489.572 -11.5513 489.264C-8.79506 488.956 -6.20087 488.647 -3.76886 488.339ZM129.33 481.869C144.733 481.869 158.19 488.493 169.702 501.741C181.375 514.989 190.374 534.091 196.697 559.046C203.182 583.693 206.425 613.732 206.425 649.162C206.425 683.668 203.101 713.861 196.454 739.74C189.969 765.62 180.889 785.8 169.215 800.28C157.542 814.76 144.166 822 129.087 822C113.684 822 100.146 815.376 88.4725 802.128C76.9609 788.88 67.9625 769.779 61.4772 744.824C55.1539 719.868 51.9922 689.83 51.9922 654.708C51.9922 620.202 55.3161 590.009 61.9636 564.129C68.6111 538.25 77.6905 518.07 89.2021 503.59C100.876 489.11 114.252 481.869 129.33 481.869ZM128.358 490.188C117.819 490.188 108.658 497.12 100.876 510.984C93.0933 524.848 87.0133 543.949 82.6357 568.289C78.4202 592.628 76.3124 620.818 76.3124 652.859C76.3124 685.516 78.6634 714.015 83.3653 738.354C88.2293 762.385 94.7147 781.024 102.821 794.272C111.09 807.212 120.17 813.682 130.06 813.682C140.599 813.682 149.759 806.75 157.542 792.886C165.324 779.022 171.323 759.92 175.539 735.581C179.916 710.934 182.105 682.744 182.105 651.01C182.105 618.045 179.673 589.547 174.809 565.516C170.107 541.485 163.703 522.999 155.596 510.06C147.489 496.812 138.41 490.188 128.358 490.188ZM338.338 488.339V497.582C332.825 497.89 328.61 499.122 325.691 501.279C322.935 503.128 321.07 506.825 320.097 512.37C319.125 517.608 318.638 525.926 318.638 537.326V766.544C318.638 777.635 319.125 785.954 320.097 791.499C321.07 797.045 322.935 800.742 325.691 802.59C328.61 804.131 332.825 804.901 338.338 804.901H356.091C363.712 804.901 369.873 803.361 374.574 800.28C379.439 797.199 383.249 792.423 386.005 785.954C388.923 779.176 391.112 770.241 392.572 759.15C394.031 748.059 395.166 734.503 395.976 718.482H401.57C401.084 728.033 400.84 740.664 400.84 756.377C400.84 762.231 400.921 770.703 401.084 781.794C401.408 792.577 401.894 803.823 402.543 815.53C394.274 814.914 384.951 814.606 374.574 814.606C364.198 814.298 354.956 814.144 346.85 814.144C343.283 814.144 338.662 814.144 332.987 814.144C327.475 814.144 321.476 814.298 314.99 814.606C308.505 814.606 301.938 814.76 295.291 815.068C288.643 815.068 282.32 815.222 276.321 815.53V806.287C281.834 805.671 285.968 804.439 288.724 802.59C291.643 800.742 293.589 797.045 294.561 791.499C295.534 785.954 296.021 777.635 296.021 766.544V537.326C296.021 525.926 295.534 517.608 294.561 512.37C293.589 506.825 291.643 503.128 288.724 501.279C285.968 499.122 281.834 497.89 276.321 497.582V488.339C279.726 488.647 284.185 488.956 289.697 489.264C295.21 489.572 301.128 489.726 307.451 489.726C313.126 489.726 318.719 489.572 324.232 489.264C329.907 488.956 334.609 488.647 338.338 488.339ZM589.295 488.339C588.647 499.122 588.16 509.597 587.836 519.764C587.674 529.931 587.593 537.634 587.593 542.871C587.593 548.417 587.674 553.808 587.836 559.046C587.998 563.975 588.16 568.134 588.322 571.523H582.729C581.756 553.346 580.378 539.02 578.594 528.545C576.811 517.762 573.731 510.214 569.353 505.9C565.137 501.279 558.733 498.968 550.14 498.968H529.954C524.442 498.968 520.226 499.893 517.308 501.741C514.551 503.282 512.687 506.825 511.714 512.37C510.741 517.608 510.255 525.926 510.255 537.326V766.544C510.255 777.635 510.741 785.954 511.714 791.499C512.687 797.045 514.551 800.742 517.308 802.59C520.226 804.131 524.442 804.901 529.954 804.901H547.708C557.922 804.901 565.624 802.282 570.812 797.045C576.163 791.807 579.973 783.335 582.242 771.627C584.674 759.612 586.458 743.437 587.593 723.103H593.187C592.7 731.422 592.457 742.513 592.457 756.377C592.457 762.231 592.538 770.703 592.7 781.794C593.024 792.577 593.511 803.823 594.159 815.53C585.891 814.914 576.568 814.606 566.191 814.606C555.815 814.298 546.573 814.144 538.466 814.144C534.899 814.144 530.278 814.144 524.604 814.144C519.091 814.144 513.092 814.298 506.607 814.606C500.122 814.606 493.555 814.76 486.908 815.068C480.26 815.068 473.937 815.222 467.938 815.53V806.287C473.45 805.671 477.585 804.439 480.341 802.59C483.26 800.742 485.205 797.045 486.178 791.499C487.151 785.954 487.637 777.635 487.637 766.544V537.326C487.637 525.926 487.151 517.608 486.178 512.37C485.205 506.825 483.26 503.128 480.341 501.279C477.585 499.122 473.45 497.89 467.938 497.582V488.339C473.937 488.647 480.26 488.956 486.908 489.264C493.555 489.264 500.122 489.418 506.607 489.726C513.092 489.726 519.091 489.726 524.604 489.726C530.278 489.726 534.899 489.726 538.466 489.726C545.924 489.726 554.355 489.726 563.759 489.726C573.325 489.418 581.837 488.956 589.295 488.339ZM547.465 646.389C547.465 646.389 547.465 647.93 547.465 651.01C547.465 654.091 547.465 655.632 547.465 655.632H502.959C502.959 655.632 502.959 654.091 502.959 651.01C502.959 647.93 502.959 646.389 502.959 646.389H547.465ZM554.518 585.387C553.869 602.949 553.545 616.35 553.545 625.593C553.707 634.836 553.788 643.308 553.788 651.01C553.788 658.713 553.869 667.185 554.031 676.428C554.193 685.671 554.599 699.072 555.247 716.633H549.654C549.005 706.775 548.194 697.224 547.222 687.981C546.411 678.43 544.465 670.728 541.385 664.874C538.466 658.713 533.44 655.632 526.306 655.632V646.389C531.657 646.389 535.71 644.387 538.466 640.381C541.385 636.068 543.492 630.677 544.79 624.207C546.087 617.737 546.978 611.113 547.465 604.335C547.951 597.249 548.437 590.933 548.924 585.387H554.518ZM558.166 387.594C561.408 383.589 564.327 382.203 566.921 383.435C569.677 384.359 571.704 386.824 573.001 390.829C574.298 394.834 574.622 399.302 573.974 404.231C573.325 408.852 571.298 413.32 567.894 417.633C564.489 421.638 560.517 425.335 555.977 428.724C551.599 431.805 546.411 435.656 540.412 440.277C534.575 444.591 527.441 450.752 519.01 458.763L517.308 452.755C524.766 441.972 530.846 432.575 535.548 424.565C540.412 416.246 544.546 409.006 547.951 402.845C551.356 396.683 554.761 391.599 558.166 387.594ZM786.136 488.339C785.487 499.122 785.001 509.597 784.677 519.764C784.515 529.931 784.434 537.634 784.434 542.871C784.434 548.417 784.515 553.808 784.677 559.046C784.839 563.975 785.001 568.134 785.163 571.523H779.57C778.597 553.346 777.219 539.02 775.435 528.545C773.652 517.762 770.571 510.214 766.194 505.9C761.978 501.279 755.574 498.968 746.981 498.968H726.795C721.282 498.968 717.067 499.893 714.149 501.741C711.392 503.282 709.528 506.825 708.555 512.37C707.582 517.608 707.095 525.926 707.095 537.326V766.544C707.095 777.635 707.582 785.954 708.555 791.499C709.528 797.045 711.392 800.742 714.149 802.59C717.067 804.131 721.282 804.901 726.795 804.901H744.549C754.763 804.901 762.464 802.282 767.653 797.045C773.003 791.807 776.813 783.335 779.083 771.627C781.515 759.612 783.299 743.437 784.434 723.103H790.027C789.541 731.422 789.298 742.513 789.298 756.377C789.298 762.231 789.379 770.703 789.541 781.794C789.865 792.577 790.351 803.823 791 815.53C782.731 814.914 773.408 814.606 763.032 814.606C752.655 814.298 743.414 814.144 735.307 814.144C731.74 814.144 727.119 814.144 721.445 814.144C715.932 814.144 709.933 814.298 703.448 814.606C696.962 814.606 690.396 814.76 683.748 815.068C677.101 815.068 670.778 815.222 664.779 815.53V806.287C670.291 805.671 674.426 804.439 677.182 802.59C680.1 800.742 682.046 797.045 683.019 791.499C683.991 785.954 684.478 777.635 684.478 766.544V537.326C684.478 525.926 683.991 517.608 683.019 512.37C682.046 506.825 680.1 503.128 677.182 501.279C674.426 499.122 670.291 497.89 664.779 497.582V488.339C670.778 488.647 677.101 488.956 683.748 489.264C690.396 489.264 696.962 489.418 703.448 489.726C709.933 489.726 715.932 489.726 721.445 489.726C727.119 489.726 731.74 489.726 735.307 489.726C742.765 489.726 751.196 489.726 760.6 489.726C770.166 489.418 778.678 488.956 786.136 488.339ZM744.305 646.389C744.305 646.389 744.305 647.93 744.305 651.01C744.305 654.091 744.305 655.632 744.305 655.632H699.799C699.799 655.632 699.799 654.091 699.799 651.01C699.799 647.93 699.799 646.389 699.799 646.389H744.305ZM751.358 585.387C750.71 602.949 750.385 616.35 750.385 625.593C750.548 634.836 750.629 643.308 750.629 651.01C750.629 658.713 750.71 667.185 750.872 676.428C751.034 685.671 751.439 699.072 752.088 716.633H746.494C745.846 706.775 745.035 697.224 744.062 687.981C743.252 678.43 741.306 670.728 738.225 664.874C735.307 658.713 730.281 655.632 723.147 655.632V646.389C728.497 646.389 732.551 644.387 735.307 640.381C738.225 636.068 740.333 630.677 741.63 624.207C742.927 617.737 743.819 611.113 744.305 604.335C744.792 597.249 745.278 590.933 745.765 585.387H751.358Z" fill="#D4AB7C"/>
<path d="M-789.984 488.339V497.582C-795.496 497.89 -799.712 499.122 -802.63 501.279C-805.386 503.128 -807.251 506.825 -808.224 512.37C-809.197 517.608 -809.683 525.926 -809.683 537.326V766.544C-809.683 777.635 -809.197 785.954 -808.224 791.499C-807.251 797.045 -805.386 800.742 -802.63 802.59C-799.712 804.131 -795.496 804.901 -789.984 804.901H-772.23C-764.61 804.901 -758.449 803.361 -753.747 800.28C-748.883 797.199 -745.072 792.423 -742.316 785.954C-739.398 779.176 -737.209 770.241 -735.75 759.15C-734.291 748.059 -733.156 734.503 -732.345 718.482H-726.751C-727.238 728.033 -727.481 740.664 -727.481 756.377C-727.481 762.231 -727.4 770.703 -727.238 781.794C-726.913 792.577 -726.427 803.823 -725.779 815.53C-734.047 814.914 -743.37 814.606 -753.747 814.606C-764.123 814.298 -773.365 814.144 -781.472 814.144C-785.039 814.144 -789.659 814.144 -795.334 814.144C-800.847 814.144 -806.846 814.298 -813.331 814.606C-819.816 814.606 -826.383 814.76 -833.03 815.068C-839.678 815.068 -846.001 815.222 -852 815.53V806.287C-846.487 805.671 -842.353 804.439 -839.597 802.59C-836.678 800.742 -834.733 797.045 -833.76 791.499C-832.787 785.954 -832.301 777.635 -832.301 766.544V537.326C-832.301 525.926 -832.787 517.608 -833.76 512.37C-834.733 506.825 -836.678 503.128 -839.597 501.279C-842.353 499.122 -846.487 497.89 -852 497.582V488.339C-848.595 488.647 -844.136 488.956 -838.624 489.264C-833.111 489.572 -827.193 489.726 -820.87 489.726C-815.196 489.726 -809.602 489.572 -804.089 489.264C-798.415 488.956 -793.713 488.647 -789.984 488.339ZM-647.494 478.172C-645.062 478.172 -643.036 480.021 -641.414 483.718C-639.63 487.415 -638.738 492.653 -638.738 499.431C-638.738 509.598 -639.063 519.148 -639.711 528.083C-640.36 536.709 -641.251 546.568 -642.387 557.659C-643.36 568.443 -644.495 582.307 -645.792 599.251H-649.197C-650.332 583.231 -651.467 569.829 -652.602 559.046C-653.736 547.955 -654.628 537.942 -655.277 529.007C-655.925 519.764 -656.25 510.06 -656.25 499.893C-656.25 493.115 -655.439 487.877 -653.818 484.18C-652.034 480.483 -649.926 478.48 -647.494 478.172ZM-444.31 488.339C-444.959 499.122 -445.445 509.597 -445.769 519.764C-445.932 529.931 -446.013 537.634 -446.013 542.871C-446.013 548.417 -445.932 553.808 -445.769 559.046C-445.607 563.975 -445.445 568.134 -445.283 571.523H-450.877C-451.85 553.346 -453.228 539.02 -455.011 528.545C-456.795 517.762 -459.875 510.214 -464.253 505.9C-468.468 501.279 -474.873 498.968 -483.466 498.968H-503.651C-509.164 498.968 -513.379 499.893 -516.298 501.741C-519.054 503.282 -520.919 506.825 -521.891 512.37C-522.864 517.608 -523.351 525.926 -523.351 537.326V766.544C-523.351 777.635 -522.864 785.954 -521.891 791.499C-520.919 797.045 -519.054 800.742 -516.298 802.59C-513.379 804.131 -509.164 804.901 -503.651 804.901H-485.898C-475.683 804.901 -467.982 802.282 -462.794 797.045C-457.443 791.807 -453.633 783.335 -451.363 771.627C-448.931 759.612 -447.148 743.437 -446.013 723.103H-440.419C-440.905 731.422 -441.149 742.513 -441.149 756.377C-441.149 762.231 -441.068 770.703 -440.905 781.794C-440.581 792.577 -440.095 803.823 -439.446 815.53C-447.715 814.914 -457.038 814.606 -467.414 814.606C-477.791 814.298 -487.033 814.144 -495.139 814.144C-498.706 814.144 -503.327 814.144 -509.002 814.144C-514.514 814.144 -520.513 814.298 -526.999 814.606C-533.484 814.606 -540.051 814.76 -546.698 815.068C-553.346 815.068 -559.669 815.222 -565.668 815.53V806.287C-560.155 805.671 -556.021 804.439 -553.264 802.59C-550.346 800.742 -548.4 797.045 -547.428 791.499C-546.455 785.954 -545.968 777.635 -545.968 766.544V537.326C-545.968 525.926 -546.455 517.608 -547.428 512.37C-548.4 506.825 -550.346 503.128 -553.264 501.279C-556.021 499.122 -560.155 497.89 -565.668 497.582V488.339C-559.669 488.647 -553.346 488.956 -546.698 489.264C-540.051 489.264 -533.484 489.418 -526.999 489.726C-520.513 489.726 -514.514 489.726 -509.002 489.726C-503.327 489.726 -498.706 489.726 -495.139 489.726C-487.681 489.726 -479.25 489.726 -469.846 489.726C-460.28 489.418 -451.768 488.956 -444.31 488.339ZM-486.141 646.389C-486.141 646.389 -486.141 647.93 -486.141 651.01C-486.141 654.091 -486.141 655.632 -486.141 655.632H-530.647C-530.647 655.632 -530.647 654.091 -530.647 651.01C-530.647 647.93 -530.647 646.389 -530.647 646.389H-486.141ZM-479.088 585.387C-479.737 602.949 -480.061 616.35 -480.061 625.593C-479.899 634.836 -479.818 643.308 -479.818 651.01C-479.818 658.713 -479.737 667.185 -479.574 676.428C-479.412 685.671 -479.007 699.072 -478.358 716.633H-483.952C-484.601 706.775 -485.411 697.224 -486.384 687.981C-487.195 678.43 -489.14 670.728 -492.221 664.874C-495.139 658.713 -500.165 655.632 -507.299 655.632V646.389C-501.949 646.389 -497.896 644.387 -495.139 640.381C-492.221 636.068 -490.113 630.677 -488.816 624.207C-487.519 617.737 -486.627 611.113 -486.141 604.335C-485.654 597.249 -485.168 590.933 -484.682 585.387H-479.088ZM-216.097 488.339V497.582C-221.609 497.89 -225.825 499.431 -228.743 502.203C-231.499 504.976 -233.364 509.443 -234.337 515.605C-235.31 521.767 -235.796 530.548 -235.796 541.947V817.841C-236.769 817.841 -237.742 817.841 -238.714 817.841C-239.525 817.841 -240.417 817.841 -241.39 817.841L-343.534 517.916V761.923C-343.534 773.014 -343.048 781.794 -342.075 788.264C-340.94 794.426 -338.832 798.893 -335.752 801.666C-332.509 804.131 -327.726 805.671 -321.403 806.287V815.53C-324.321 814.914 -328.131 814.606 -332.833 814.606C-337.535 814.298 -341.994 814.144 -346.209 814.144C-350.263 814.144 -354.397 814.298 -358.613 814.606C-362.666 814.606 -366.071 814.914 -368.827 815.53V806.287C-363.315 805.671 -359.18 804.131 -356.424 801.666C-353.505 798.893 -351.56 794.426 -350.587 788.264C-349.614 781.794 -349.128 773.014 -349.128 761.923V537.326C-349.128 525.926 -349.614 517.608 -350.587 512.37C-351.56 506.825 -353.505 503.128 -356.424 501.279C-359.18 499.122 -363.315 497.89 -368.827 497.582V488.339C-366.071 488.647 -362.666 488.956 -358.613 489.264C-354.397 489.572 -350.263 489.726 -346.209 489.726C-342.642 489.726 -339.238 489.572 -335.995 489.264C-332.752 488.956 -329.834 488.647 -327.24 488.339L-241.39 739.74V541.947C-241.39 530.548 -241.957 521.767 -243.092 515.605C-244.065 509.443 -246.173 504.976 -249.415 502.203C-252.496 499.431 -257.198 497.89 -263.521 497.582V488.339C-260.602 488.647 -256.792 488.956 -252.09 489.264C-247.226 489.572 -242.768 489.726 -238.714 489.726C-234.499 489.726 -230.364 489.572 -226.311 489.264C-222.096 488.956 -218.691 488.647 -216.097 488.339ZM-3.76886 488.339V497.582C-6.84941 498.814 -10.1732 502.357 -13.7402 508.211C-17.145 514.065 -20.2255 523.924 -22.9818 537.788L-80.1341 817.841C-80.4583 817.841 -80.7826 817.841 -81.1069 817.841C-81.4312 817.841 -81.7554 817.841 -82.0797 817.841C-82.404 817.841 -82.7283 817.841 -83.0526 817.841C-83.3768 817.841 -83.7011 817.841 -84.0253 817.841L-143.366 527.159C-145.798 515.451 -148.555 507.749 -151.635 504.052C-154.716 500.047 -157.553 497.89 -160.147 497.582V488.339C-156.905 488.647 -152.932 488.956 -148.231 489.264C-143.367 489.572 -138.665 489.726 -134.125 489.726C-127.802 489.726 -121.884 489.572 -116.371 489.264C-110.859 488.956 -106.4 488.647 -102.995 488.339V497.582C-108.508 497.89 -112.723 499.122 -115.642 501.279C-118.398 503.436 -119.938 507.287 -120.262 512.832C-120.424 518.07 -119.452 525.926 -117.344 536.401L-72.1085 764.233L-75.9997 772.09L-33.6827 563.205C-30.2778 546.568 -28.6565 533.628 -28.8187 524.386C-28.9808 514.835 -30.8454 508.057 -34.4123 504.052C-37.9793 500.047 -43.1675 497.89 -49.9771 497.582V488.339C-45.2752 488.647 -40.4923 488.956 -35.6283 489.264C-30.7643 489.572 -26.2245 489.726 -22.009 489.726C-17.7935 489.726 -14.3076 489.572 -11.5513 489.264C-8.79506 488.956 -6.20087 488.647 -3.76886 488.339ZM129.33 481.869C144.733 481.869 158.19 488.493 169.702 501.741C181.375 514.989 190.374 534.091 196.697 559.046C203.182 583.693 206.425 613.732 206.425 649.162C206.425 683.668 203.101 713.861 196.454 739.74C189.969 765.62 180.889 785.8 169.215 800.28C157.542 814.76 144.166 822 129.087 822C113.684 822 100.146 815.376 88.4725 802.128C76.9609 788.88 67.9625 769.779 61.4772 744.824C55.1539 719.868 51.9922 689.83 51.9922 654.708C51.9922 620.202 55.3161 590.009 61.9636 564.129C68.6111 538.25 77.6905 518.07 89.2021 503.59C100.876 489.11 114.252 481.869 129.33 481.869ZM128.358 490.188C117.819 490.188 108.658 497.12 100.876 510.984C93.0933 524.848 87.0133 543.949 82.6357 568.289C78.4202 592.628 76.3124 620.818 76.3124 652.859C76.3124 685.516 78.6634 714.015 83.3653 738.354C88.2293 762.385 94.7147 781.024 102.821 794.272C111.09 807.212 120.17 813.682 130.06 813.682C140.599 813.682 149.759 806.75 157.542 792.886C165.324 779.022 171.323 759.92 175.539 735.581C179.916 710.934 182.105 682.744 182.105 651.01C182.105 618.045 179.673 589.547 174.809 565.516C170.107 541.485 163.703 522.999 155.596 510.06C147.489 496.812 138.41 490.188 128.358 490.188ZM338.338 488.339V497.582C332.825 497.89 328.61 499.122 325.691 501.279C322.935 503.128 321.07 506.825 320.097 512.37C319.125 517.608 318.638 525.926 318.638 537.326V766.544C318.638 777.635 319.125 785.954 320.097 791.499C321.07 797.045 322.935 800.742 325.691 802.59C328.61 804.131 332.825 804.901 338.338 804.901H356.091C363.712 804.901 369.873 803.361 374.574 800.28C379.439 797.199 383.249 792.423 386.005 785.954C388.923 779.176 391.112 770.241 392.572 759.15C394.031 748.059 395.166 734.503 395.976 718.482H401.57C401.084 728.033 400.84 740.664 400.84 756.377C400.84 762.231 400.921 770.703 401.084 781.794C401.408 792.577 401.894 803.823 402.543 815.53C394.274 814.914 384.951 814.606 374.574 814.606C364.198 814.298 354.956 814.144 346.85 814.144C343.283 814.144 338.662 814.144 332.987 814.144C327.475 814.144 321.476 814.298 314.99 814.606C308.505 814.606 301.938 814.76 295.291 815.068C288.643 815.068 282.32 815.222 276.321 815.53V806.287C281.834 805.671 285.968 804.439 288.724 802.59C291.643 800.742 293.589 797.045 294.561 791.499C295.534 785.954 296.021 777.635 296.021 766.544V537.326C296.021 525.926 295.534 517.608 294.561 512.37C293.589 506.825 291.643 503.128 288.724 501.279C285.968 499.122 281.834 497.89 276.321 497.582V488.339C279.726 488.647 284.185 488.956 289.697 489.264C295.21 489.572 301.128 489.726 307.451 489.726C313.126 489.726 318.719 489.572 324.232 489.264C329.907 488.956 334.609 488.647 338.338 488.339ZM589.295 488.339C588.647 499.122 588.16 509.597 587.836 519.764C587.674 529.931 587.593 537.634 587.593 542.871C587.593 548.417 587.674 553.808 587.836 559.046C587.998 563.975 588.16 568.134 588.322 571.523H582.729C581.756 553.346 580.378 539.02 578.594 528.545C576.811 517.762 573.731 510.214 569.353 505.9C565.137 501.279 558.733 498.968 550.14 498.968H529.954C524.442 498.968 520.226 499.893 517.308 501.741C514.551 503.282 512.687 506.825 511.714 512.37C510.741 517.608 510.255 525.926 510.255 537.326V766.544C510.255 777.635 510.741 785.954 511.714 791.499C512.687 797.045 514.551 800.742 517.308 802.59C520.226 804.131 524.442 804.901 529.954 804.901H547.708C557.922 804.901 565.624 802.282 570.812 797.045C576.163 791.807 579.973 783.335 582.242 771.627C584.674 759.612 586.458 743.437 587.593 723.103H593.187C592.7 731.422 592.457 742.513 592.457 756.377C592.457 762.231 592.538 770.703 592.7 781.794C593.024 792.577 593.511 803.823 594.159 815.53C585.891 814.914 576.568 814.606 566.191 814.606C555.815 814.298 546.573 814.144 538.466 814.144C534.899 814.144 530.278 814.144 524.604 814.144C519.091 814.144 513.092 814.298 506.607 814.606C500.122 814.606 493.555 814.76 486.908 815.068C480.26 815.068 473.937 815.222 467.938 815.53V806.287C473.45 805.671 477.585 804.439 480.341 802.59C483.26 800.742 485.205 797.045 486.178 791.499C487.151 785.954 487.637 777.635 487.637 766.544V537.326C487.637 525.926 487.151 517.608 486.178 512.37C485.205 506.825 483.26 503.128 480.341 501.279C477.585 499.122 473.45 497.89 467.938 497.582V488.339C473.937 488.647 480.26 488.956 486.908 489.264C493.555 489.264 500.122 489.418 506.607 489.726C513.092 489.726 519.091 489.726 524.604 489.726C530.278 489.726 534.899 489.726 538.466 489.726C545.924 489.726 554.355 489.726 563.759 489.726C573.325 489.418 581.837 488.956 589.295 488.339ZM547.465 646.389C547.465 646.389 547.465 647.93 547.465 651.01C547.465 654.091 547.465 655.632 547.465 655.632H502.959C502.959 655.632 502.959 654.091 502.959 651.01C502.959 647.93 502.959 646.389 502.959 646.389H547.465ZM554.518 585.387C553.869 602.949 553.545 616.35 553.545 625.593C553.707 634.836 553.788 643.308 553.788 651.01C553.788 658.713 553.869 667.185 554.031 676.428C554.193 685.671 554.599 699.072 555.247 716.633H549.654C549.005 706.775 548.194 697.224 547.222 687.981C546.411 678.43 544.465 670.728 541.385 664.874C538.466 658.713 533.44 655.632 526.306 655.632V646.389C531.657 646.389 535.71 644.387 538.466 640.381C541.385 636.068 543.492 630.677 544.79 624.207C546.087 617.737 546.978 611.113 547.465 604.335C547.951 597.249 548.437 590.933 548.924 585.387H554.518ZM558.166 387.594C561.408 383.589 564.327 382.203 566.921 383.435C569.677 384.359 571.704 386.824 573.001 390.829C574.298 394.834 574.622 399.302 573.974 404.231C573.325 408.852 571.298 413.32 567.894 417.633C564.489 421.638 560.517 425.335 555.977 428.724C551.599 431.805 546.411 435.656 540.412 440.277C534.575 444.591 527.441 450.752 519.01 458.763L517.308 452.755C524.766 441.972 530.846 432.575 535.548 424.565C540.412 416.246 544.546 409.006 547.951 402.845C551.356 396.683 554.761 391.599 558.166 387.594ZM786.136 488.339C785.487 499.122 785.001 509.597 784.677 519.764C784.515 529.931 784.434 537.634 784.434 542.871C784.434 548.417 784.515 553.808 784.677 559.046C784.839 563.975 785.001 568.134 785.163 571.523H779.57C778.597 553.346 777.219 539.02 775.435 528.545C773.652 517.762 770.571 510.214 766.194 505.9C761.978 501.279 755.574 498.968 746.981 498.968H726.795C721.282 498.968 717.067 499.893 714.149 501.741C711.392 503.282 709.528 506.825 708.555 512.37C707.582 517.608 707.095 525.926 707.095 537.326V766.544C707.095 777.635 707.582 785.954 708.555 791.499C709.528 797.045 711.392 800.742 714.149 802.59C717.067 804.131 721.282 804.901 726.795 804.901H744.549C754.763 804.901 762.464 802.282 767.653 797.045C773.003 791.807 776.813 783.335 779.083 771.627C781.515 759.612 783.299 743.437 784.434 723.103H790.027C789.541 731.422 789.298 742.513 789.298 756.377C789.298 762.231 789.379 770.703 789.541 781.794C789.865 792.577 790.351 803.823 791 815.53C782.731 814.914 773.408 814.606 763.032 814.606C752.655 814.298 743.414 814.144 735.307 814.144C731.74 814.144 727.119 814.144 721.445 814.144C715.932 814.144 709.933 814.298 703.448 814.606C696.962 814.606 690.396 814.76 683.748 815.068C677.101 815.068 670.778 815.222 664.779 815.53V806.287C670.291 805.671 674.426 804.439 677.182 802.59C680.1 800.742 682.046 797.045 683.019 791.499C683.991 785.954 684.478 777.635 684.478 766.544V537.326C684.478 525.926 683.991 517.608 683.019 512.37C682.046 506.825 680.1 503.128 677.182 501.279C674.426 499.122 670.291 497.89 664.779 497.582V488.339C670.778 488.647 677.101 488.956 683.748 489.264C690.396 489.264 696.962 489.418 703.448 489.726C709.933 489.726 715.932 489.726 721.445 489.726C727.119 489.726 731.74 489.726 735.307 489.726C742.765 489.726 751.196 489.726 760.6 489.726C770.166 489.418 778.678 488.956 786.136 488.339ZM744.305 646.389C744.305 646.389 744.305 647.93 744.305 651.01C744.305 654.091 744.305 655.632 744.305 655.632H699.799C699.799 655.632 699.799 654.091 699.799 651.01C699.799 647.93 699.799 646.389 699.799 646.389H744.305ZM751.358 585.387C750.71 602.949 750.385 616.35 750.385 625.593C750.548 634.836 750.629 643.308 750.629 651.01C750.629 658.713 750.71 667.185 750.872 676.428C751.034 685.671 751.439 699.072 752.088 716.633H746.494C745.846 706.775 745.035 697.224 744.062 687.981C743.252 678.43 741.306 670.728 738.225 664.874C735.307 658.713 730.281 655.632 723.147 655.632V646.389C728.497 646.389 732.551 644.387 735.307 640.381C738.225 636.068 740.333 630.677 741.63 624.207C742.927 617.737 743.819 611.113 744.305 604.335C744.792 597.249 745.278 590.933 745.765 585.387H751.358Z" stroke="#D4AB7C" stroke-width="10" mask="url(#path-1-outside-1_3_8)"/>
<mask id="path-2-outside-2_3_8" maskUnits="userSpaceOnUse" x="13" y="-58" width="1654" height="446" fill="black">
<rect fill="white" x="13" y="-58" width="1654" height="446"/>
<path d="M80.0163 52.2998V61.4513C74.5038 61.7563 70.2883 62.9765 67.3699 65.1119C64.6136 66.9422 62.749 70.6027 61.7762 76.0936C60.8034 81.2795 60.317 89.5158 60.317 100.803V327.759C60.317 338.741 60.8034 346.977 61.7762 352.468C62.749 357.959 64.6136 361.619 67.3699 363.45C70.2883 364.975 74.5038 365.738 80.0163 365.738H97.77C105.39 365.738 111.551 364.212 116.253 361.162C121.117 358.111 124.928 353.383 127.684 346.977C130.602 340.266 132.791 331.42 134.25 320.438C135.709 309.456 136.844 296.034 137.655 280.171H143.249C142.762 289.628 142.519 302.135 142.519 317.692C142.519 323.488 142.6 331.877 142.762 342.859C143.087 353.536 143.573 364.67 144.221 376.262C135.953 375.652 126.63 375.347 116.253 375.347C105.877 375.042 96.6351 374.889 88.5284 374.889C84.9614 374.889 80.3406 374.889 74.6659 374.889C69.1533 374.889 63.1544 375.042 56.669 375.347C50.1836 375.347 43.6172 375.499 36.9697 375.804C30.3222 375.804 23.999 375.957 18 376.262V367.11C23.5126 366.5 27.647 365.28 30.4033 363.45C33.3217 361.619 35.2673 357.959 36.2401 352.468C37.2129 346.977 37.6993 338.741 37.6993 327.759V100.803C37.6993 89.5158 37.2129 81.2795 36.2401 76.0936C35.2673 70.6027 33.3217 66.9422 30.4033 65.1119C27.647 62.9765 23.5126 61.7563 18 61.4513V52.2998C21.4048 52.6049 25.8635 52.9099 31.3761 53.215C36.8886 53.52 42.8065 53.6725 49.1298 53.6725C54.8045 53.6725 60.3981 53.52 65.9107 53.215C71.5854 52.9099 76.2873 52.6049 80.0163 52.2998ZM222.506 42.2332C224.938 42.2332 226.964 44.0635 228.586 47.7241C230.37 51.3847 231.262 56.5705 231.262 63.2816C231.262 73.3482 230.937 82.8047 230.289 91.6511C229.64 100.192 228.749 109.954 227.613 120.936C226.64 131.613 225.505 145.34 224.208 162.117H220.803C219.668 146.255 218.533 132.985 217.398 122.309C216.264 111.327 215.372 101.413 214.723 92.5663C214.075 83.4148 213.75 73.8058 213.75 63.7392C213.75 57.0281 214.561 51.8422 216.182 48.1816C217.966 44.5211 220.074 42.5382 222.506 42.2332ZM425.69 52.2998C425.041 62.9765 424.555 73.3482 424.231 83.4148C424.068 93.4814 423.987 101.108 423.987 106.293C423.987 111.784 424.068 117.123 424.231 122.309C424.393 127.189 424.555 131.307 424.717 134.663H419.123C418.15 116.665 416.772 102.48 414.989 92.1087C413.205 81.432 410.125 73.9583 405.747 69.6876C401.532 65.1119 395.127 62.824 386.534 62.824H366.349C360.836 62.824 356.621 63.7391 353.702 65.5694C350.946 67.0947 349.081 70.6027 348.109 76.0936C347.136 81.2795 346.649 89.5158 346.649 100.803V327.759C346.649 338.741 347.136 346.977 348.109 352.468C349.081 357.959 350.946 361.619 353.702 363.45C356.621 364.975 360.836 365.738 366.349 365.738H384.102C394.317 365.738 402.018 363.145 407.206 357.959C412.557 352.773 416.367 344.384 418.637 332.792C421.069 320.895 422.852 304.88 423.987 284.747H429.581C429.095 292.983 428.851 303.965 428.851 317.692C428.851 323.488 428.932 331.877 429.095 342.859C429.419 353.536 429.905 364.67 430.554 376.262C422.285 375.652 412.962 375.347 402.586 375.347C392.209 375.042 382.967 374.889 374.861 374.889C371.294 374.889 366.673 374.889 360.998 374.889C355.486 374.889 349.487 375.042 343.001 375.347C336.516 375.347 329.949 375.499 323.302 375.804C316.654 375.804 310.331 375.957 304.332 376.262V367.11C309.845 366.5 313.979 365.28 316.736 363.45C319.654 361.619 321.6 357.959 322.572 352.468C323.545 346.977 324.032 338.741 324.032 327.759V100.803C324.032 89.5158 323.545 81.2795 322.572 76.0936C321.6 70.6027 319.654 66.9422 316.736 65.1119C313.979 62.9765 309.845 61.7563 304.332 61.4513V52.2998C310.331 52.6049 316.654 52.9099 323.302 53.215C329.949 53.215 336.516 53.3675 343.001 53.6725C349.487 53.6725 355.486 53.6725 360.998 53.6725C366.673 53.6725 371.294 53.6725 374.861 53.6725C382.319 53.6725 390.75 53.6725 400.154 53.6725C409.72 53.3675 418.232 52.9099 425.69 52.2998ZM383.859 208.79C383.859 208.79 383.859 210.315 383.859 213.366C383.859 216.416 383.859 217.941 383.859 217.941H339.353C339.353 217.941 339.353 216.416 339.353 213.366C339.353 210.315 339.353 208.79 339.353 208.79H383.859ZM390.912 148.39C390.263 165.778 389.939 179.048 389.939 188.199C390.101 197.351 390.182 205.739 390.182 213.366C390.182 220.992 390.263 229.381 390.426 238.532C390.588 247.684 390.993 260.953 391.642 278.341H386.048C385.399 268.579 384.589 259.123 383.616 249.971C382.805 240.515 380.86 232.889 377.779 227.093C374.861 220.992 369.835 217.941 362.701 217.941V208.79C368.051 208.79 372.104 206.807 374.861 202.841C377.779 198.571 379.887 193.232 381.184 186.826C382.481 180.42 383.373 173.862 383.859 167.151C384.346 160.135 384.832 153.881 385.318 148.39H390.912ZM653.903 52.2998V61.4513C648.391 61.7563 644.175 63.2816 641.257 66.027C638.501 68.7725 636.636 73.1957 635.663 79.2966C634.69 85.3976 634.204 94.0915 634.204 105.378V378.55C633.231 378.55 632.258 378.55 631.286 378.55C630.475 378.55 629.583 378.55 628.61 378.55L526.466 81.5845V323.183C526.466 334.165 526.952 342.859 527.925 349.265C529.06 355.366 531.168 359.789 534.248 362.535C537.491 364.975 542.274 366.5 548.597 367.11V376.262C545.679 375.652 541.869 375.347 537.167 375.347C532.465 375.042 528.006 374.889 523.791 374.889C519.737 374.889 515.603 375.042 511.387 375.347C507.334 375.347 503.929 375.652 501.173 376.262V367.11C506.685 366.5 510.82 364.975 513.576 362.535C516.495 359.789 518.44 355.366 519.413 349.265C520.386 342.859 520.872 334.165 520.872 323.183V100.803C520.872 89.5158 520.386 81.2795 519.413 76.0936C518.44 70.6027 516.495 66.9422 513.576 65.1119C510.82 62.9765 506.685 61.7563 501.173 61.4513V52.2998C503.929 52.6049 507.334 52.9099 511.387 53.215C515.603 53.52 519.737 53.6725 523.791 53.6725C527.358 53.6725 530.762 53.52 534.005 53.215C537.248 52.9099 540.166 52.6049 542.76 52.2998L628.61 301.22V105.378C628.61 94.0915 628.043 85.3976 626.908 79.2966C625.935 73.1957 623.827 68.7725 620.585 66.027C617.504 63.2816 612.802 61.7563 606.479 61.4513V52.2998C609.398 52.6049 613.208 52.9099 617.91 53.215C622.774 53.52 627.232 53.6725 631.286 53.6725C635.501 53.6725 639.636 53.52 643.689 53.215C647.904 52.9099 651.309 52.6049 653.903 52.2998ZM866.231 52.2998V61.4513C863.151 62.6715 859.827 66.1795 856.26 71.9755C852.855 77.7714 849.775 87.533 847.018 101.26L789.866 378.55C789.542 378.55 789.217 378.55 788.893 378.55C788.569 378.55 788.245 378.55 787.92 378.55C787.596 378.55 787.272 378.55 786.947 378.55C786.623 378.55 786.299 378.55 785.975 378.55L726.634 90.7359C724.202 79.1441 721.445 71.5179 718.365 67.8573C715.284 63.8917 712.447 61.7563 709.853 61.4513V52.2998C713.095 52.6049 717.068 52.9099 721.769 53.215C726.633 53.52 731.335 53.6725 735.875 53.6725C742.198 53.6725 748.116 53.52 753.629 53.215C759.141 52.9099 763.6 52.6049 767.005 52.2998V61.4513C761.492 61.7563 757.277 62.9765 754.358 65.1119C751.602 67.2472 750.062 71.0603 749.738 76.5512C749.576 81.737 750.548 89.5157 752.656 99.8874L797.891 325.471L794 333.25L836.317 126.427C839.722 109.954 841.343 97.142 841.181 87.9905C841.019 78.534 839.155 71.8229 835.588 67.8573C832.021 63.8917 826.832 61.7563 820.023 61.4513V52.2998C824.725 52.6049 829.508 52.9099 834.372 53.215C839.236 53.52 843.776 53.6725 847.991 53.6725C852.207 53.6725 855.692 53.52 858.449 53.215C861.205 52.9099 863.799 52.6049 866.231 52.2998ZM999.33 45.8938C1014.73 45.8938 1028.19 52.4523 1039.7 65.5694C1051.38 78.6865 1060.37 97.5996 1066.7 122.309C1073.18 146.712 1076.43 176.455 1076.43 211.535C1076.43 245.701 1073.1 275.596 1066.45 301.22C1059.97 326.844 1050.89 346.825 1039.22 361.162C1027.54 375.499 1014.17 382.668 999.087 382.668C983.684 382.668 970.146 376.109 958.472 362.992C946.961 349.875 937.963 330.962 931.477 306.253C925.154 281.544 921.992 251.802 921.992 217.026C921.992 182.861 925.316 152.966 931.964 127.342C938.611 101.718 947.691 81.737 959.202 67.3997C970.876 53.0624 984.252 45.8938 999.33 45.8938ZM998.358 54.1301C987.819 54.1301 978.658 60.9937 970.876 74.7209C963.093 88.4481 957.013 107.361 952.636 131.46C948.42 155.559 946.312 183.471 946.312 215.196C946.312 247.531 948.663 275.748 953.365 299.847C958.229 323.641 964.715 342.096 972.821 355.213C981.09 368.025 990.17 374.431 1000.06 374.431C1010.6 374.431 1019.76 367.568 1027.54 353.841C1035.32 340.113 1041.32 321.2 1045.54 297.102C1049.92 272.698 1052.1 244.786 1052.1 213.366C1052.1 180.725 1049.67 152.508 1044.81 128.715C1040.11 104.921 1033.7 86.6178 1025.6 73.8058C1017.49 60.6887 1008.41 54.1301 998.358 54.1301ZM1208.34 52.2998V61.4513C1202.83 61.7563 1198.61 62.9765 1195.69 65.1119C1192.93 66.9422 1191.07 70.6027 1190.1 76.0936C1189.12 81.2795 1188.64 89.5158 1188.64 100.803V327.759C1188.64 338.741 1189.12 346.977 1190.1 352.468C1191.07 357.959 1192.93 361.619 1195.69 363.45C1198.61 364.975 1202.83 365.738 1208.34 365.738H1226.09C1233.71 365.738 1239.87 364.212 1244.57 361.162C1249.44 358.111 1253.25 353.383 1256 346.977C1258.92 340.266 1261.11 331.42 1262.57 320.438C1264.03 309.456 1265.17 296.034 1265.98 280.171H1271.57C1271.08 289.628 1270.84 302.135 1270.84 317.692C1270.84 323.488 1270.92 331.877 1271.08 342.859C1271.41 353.536 1271.89 364.67 1272.54 376.262C1264.27 375.652 1254.95 375.347 1244.57 375.347C1234.2 375.042 1224.96 374.889 1216.85 374.889C1213.28 374.889 1208.66 374.889 1202.99 374.889C1197.47 374.889 1191.48 375.042 1184.99 375.347C1178.5 375.347 1171.94 375.499 1165.29 375.804C1158.64 375.804 1152.32 375.957 1146.32 376.262V367.11C1151.83 366.5 1155.97 365.28 1158.72 363.45C1161.64 361.619 1163.59 357.959 1164.56 352.468C1165.53 346.977 1166.02 338.741 1166.02 327.759V100.803C1166.02 89.5158 1165.53 81.2795 1164.56 76.0936C1163.59 70.6027 1161.64 66.9422 1158.72 65.1119C1155.97 62.9765 1151.83 61.7563 1146.32 61.4513V52.2998C1149.73 52.6049 1154.18 52.9099 1159.7 53.215C1165.21 53.52 1171.13 53.6725 1177.45 53.6725C1183.13 53.6725 1188.72 53.52 1194.23 53.215C1199.91 52.9099 1204.61 52.6049 1208.34 52.2998ZM1459.3 52.2998C1458.65 62.9765 1458.16 73.3482 1457.84 83.4148C1457.67 93.4814 1457.59 101.108 1457.59 106.293C1457.59 111.784 1457.67 117.123 1457.84 122.309C1458 127.189 1458.16 131.307 1458.32 134.663H1452.73C1451.76 116.665 1450.38 102.48 1448.59 92.1087C1446.81 81.432 1443.73 73.9583 1439.35 69.6876C1435.14 65.1119 1428.73 62.824 1420.14 62.824H1399.95C1394.44 62.824 1390.23 63.7391 1387.31 65.5694C1384.55 67.0947 1382.69 70.6027 1381.71 76.0936C1380.74 81.2795 1380.25 89.5158 1380.25 100.803V327.759C1380.25 338.741 1380.74 346.977 1381.71 352.468C1382.69 357.959 1384.55 361.619 1387.31 363.45C1390.23 364.975 1394.44 365.738 1399.95 365.738H1417.71C1427.92 365.738 1435.62 363.145 1440.81 357.959C1446.16 352.773 1449.97 344.384 1452.24 332.792C1454.67 320.895 1456.46 304.88 1457.59 284.747H1463.19C1462.7 292.983 1462.46 303.965 1462.46 317.692C1462.46 323.488 1462.54 331.877 1462.7 342.859C1463.02 353.536 1463.51 364.67 1464.16 376.262C1455.89 375.652 1446.57 375.347 1436.19 375.347C1425.81 375.042 1416.57 374.889 1408.47 374.889C1404.9 374.889 1400.28 374.889 1394.6 374.889C1389.09 374.889 1383.09 375.042 1376.61 375.347C1370.12 375.347 1363.56 375.499 1356.91 375.804C1350.26 375.804 1343.94 375.957 1337.94 376.262V367.11C1343.45 366.5 1347.58 365.28 1350.34 363.45C1353.26 361.619 1355.21 357.959 1356.18 352.468C1357.15 346.977 1357.64 338.741 1357.64 327.759V100.803C1357.64 89.5158 1357.15 81.2795 1356.18 76.0936C1355.21 70.6027 1353.26 66.9422 1350.34 65.1119C1347.58 62.9765 1343.45 61.7563 1337.94 61.4513V52.2998C1343.94 52.6049 1350.26 52.9099 1356.91 53.215C1363.56 53.215 1370.12 53.3675 1376.61 53.6725C1383.09 53.6725 1389.09 53.6725 1394.6 53.6725C1400.28 53.6725 1404.9 53.6725 1408.47 53.6725C1415.92 53.6725 1424.36 53.6725 1433.76 53.6725C1443.33 53.3675 1451.84 52.9099 1459.3 52.2998ZM1417.46 208.79C1417.46 208.79 1417.46 210.315 1417.46 213.366C1417.46 216.416 1417.46 217.941 1417.46 217.941H1372.96C1372.96 217.941 1372.96 216.416 1372.96 213.366C1372.96 210.315 1372.96 208.79 1372.96 208.79H1417.46ZM1424.52 148.39C1423.87 165.778 1423.54 179.048 1423.54 188.199C1423.71 197.351 1423.79 205.739 1423.79 213.366C1423.79 220.992 1423.87 229.381 1424.03 238.532C1424.19 247.684 1424.6 260.953 1425.25 278.341H1419.65C1419.01 268.579 1418.19 259.123 1417.22 249.971C1416.41 240.515 1414.47 232.889 1411.38 227.093C1408.47 220.992 1403.44 217.941 1396.31 217.941V208.79C1401.66 208.79 1405.71 206.807 1408.47 202.841C1411.38 198.571 1413.49 193.232 1414.79 186.826C1416.09 180.42 1416.98 173.862 1417.46 167.151C1417.95 160.135 1418.44 153.881 1418.92 148.39H1424.52ZM1428.17 -47.4512C1431.41 -51.4168 1434.33 -52.7895 1436.92 -51.5693C1439.68 -50.6542 1441.7 -48.2138 1443 -44.2482C1444.3 -40.2825 1444.62 -35.8593 1443.97 -30.9785C1443.33 -26.4028 1441.3 -21.9796 1437.89 -17.7089C1434.49 -13.7433 1430.52 -10.0827 1425.98 -6.72717C1421.6 -3.67668 1416.41 0.136434 1410.41 4.71217C1404.58 8.98285 1397.44 15.0838 1389.01 23.0151L1387.31 17.0667C1394.77 6.38995 1400.85 -2.91405 1405.55 -10.8453C1410.41 -19.0816 1414.55 -26.2503 1417.95 -32.3513C1421.36 -38.4522 1424.76 -43.4856 1428.17 -47.4512ZM1656.14 52.2998C1655.49 62.9765 1655 73.3482 1654.68 83.4148C1654.51 93.4814 1654.43 101.108 1654.43 106.293C1654.43 111.784 1654.51 117.123 1654.68 122.309C1654.84 127.189 1655 131.307 1655.16 134.663H1649.57C1648.6 116.665 1647.22 102.48 1645.44 92.1087C1643.65 81.432 1640.57 73.9583 1636.19 69.6876C1631.98 65.1119 1625.57 62.824 1616.98 62.824H1596.79C1591.28 62.824 1587.07 63.7391 1584.15 65.5694C1581.39 67.0947 1579.53 70.6027 1578.55 76.0936C1577.58 81.2795 1577.1 89.5158 1577.1 100.803V327.759C1577.1 338.741 1577.58 346.977 1578.55 352.468C1579.53 357.959 1581.39 361.619 1584.15 363.45C1587.07 364.975 1591.28 365.738 1596.79 365.738H1614.55C1624.76 365.738 1632.46 363.145 1637.65 357.959C1643 352.773 1646.81 344.384 1649.08 332.792C1651.52 320.895 1653.3 304.88 1654.43 284.747H1660.03C1659.54 292.983 1659.3 303.965 1659.3 317.692C1659.3 323.488 1659.38 331.877 1659.54 342.859C1659.87 353.536 1660.35 364.67 1661 376.262C1652.73 375.652 1643.41 375.347 1633.03 375.347C1622.66 375.042 1613.41 374.889 1605.31 374.889C1601.74 374.889 1597.12 374.889 1591.44 374.889C1585.93 374.889 1579.93 375.042 1573.45 375.347C1566.96 375.347 1560.4 375.499 1553.75 375.804C1547.1 375.804 1540.78 375.957 1534.78 376.262V367.11C1540.29 366.5 1544.43 365.28 1547.18 363.45C1550.1 361.619 1552.05 357.959 1553.02 352.468C1553.99 346.977 1554.48 338.741 1554.48 327.759V100.803C1554.48 89.5158 1553.99 81.2795 1553.02 76.0936C1552.05 70.6027 1550.1 66.9422 1547.18 65.1119C1544.43 62.9765 1540.29 61.7563 1534.78 61.4513V52.2998C1540.78 52.6049 1547.1 52.9099 1553.75 53.215C1560.4 53.215 1566.96 53.3675 1573.45 53.6725C1579.93 53.6725 1585.93 53.6725 1591.44 53.6725C1597.12 53.6725 1601.74 53.6725 1605.31 53.6725C1612.77 53.6725 1621.2 53.6725 1630.6 53.6725C1640.17 53.3675 1648.68 52.9099 1656.14 52.2998ZM1614.31 208.79C1614.31 208.79 1614.31 210.315 1614.31 213.366C1614.31 216.416 1614.31 217.941 1614.31 217.941H1569.8C1569.8 217.941 1569.8 216.416 1569.8 213.366C1569.8 210.315 1569.8 208.79 1569.8 208.79H1614.31ZM1621.36 148.39C1620.71 165.778 1620.39 179.048 1620.39 188.199C1620.55 197.351 1620.63 205.739 1620.63 213.366C1620.63 220.992 1620.71 229.381 1620.87 238.532C1621.03 247.684 1621.44 260.953 1622.09 278.341H1616.49C1615.85 268.579 1615.04 259.123 1614.06 249.971C1613.25 240.515 1611.31 232.889 1608.23 227.093C1605.31 220.992 1600.28 217.941 1593.15 217.941V208.79C1598.5 208.79 1602.55 206.807 1605.31 202.841C1608.23 198.571 1610.33 193.232 1611.63 186.826C1612.93 180.42 1613.82 173.862 1614.31 167.151C1614.79 160.135 1615.28 153.881 1615.76 148.39H1621.36Z"/>
</mask>
<path d="M80.0163 52.2998V61.4513C74.5038 61.7563 70.2883 62.9765 67.3699 65.1119C64.6136 66.9422 62.749 70.6027 61.7762 76.0936C60.8034 81.2795 60.317 89.5158 60.317 100.803V327.759C60.317 338.741 60.8034 346.977 61.7762 352.468C62.749 357.959 64.6136 361.619 67.3699 363.45C70.2883 364.975 74.5038 365.738 80.0163 365.738H97.77C105.39 365.738 111.551 364.212 116.253 361.162C121.117 358.111 124.928 353.383 127.684 346.977C130.602 340.266 132.791 331.42 134.25 320.438C135.709 309.456 136.844 296.034 137.655 280.171H143.249C142.762 289.628 142.519 302.135 142.519 317.692C142.519 323.488 142.6 331.877 142.762 342.859C143.087 353.536 143.573 364.67 144.221 376.262C135.953 375.652 126.63 375.347 116.253 375.347C105.877 375.042 96.6351 374.889 88.5284 374.889C84.9614 374.889 80.3406 374.889 74.6659 374.889C69.1533 374.889 63.1544 375.042 56.669 375.347C50.1836 375.347 43.6172 375.499 36.9697 375.804C30.3222 375.804 23.999 375.957 18 376.262V367.11C23.5126 366.5 27.647 365.28 30.4033 363.45C33.3217 361.619 35.2673 357.959 36.2401 352.468C37.2129 346.977 37.6993 338.741 37.6993 327.759V100.803C37.6993 89.5158 37.2129 81.2795 36.2401 76.0936C35.2673 70.6027 33.3217 66.9422 30.4033 65.1119C27.647 62.9765 23.5126 61.7563 18 61.4513V52.2998C21.4048 52.6049 25.8635 52.9099 31.3761 53.215C36.8886 53.52 42.8065 53.6725 49.1298 53.6725C54.8045 53.6725 60.3981 53.52 65.9107 53.215C71.5854 52.9099 76.2873 52.6049 80.0163 52.2998ZM222.506 42.2332C224.938 42.2332 226.964 44.0635 228.586 47.7241C230.37 51.3847 231.262 56.5705 231.262 63.2816C231.262 73.3482 230.937 82.8047 230.289 91.6511C229.64 100.192 228.749 109.954 227.613 120.936C226.64 131.613 225.505 145.34 224.208 162.117H220.803C219.668 146.255 218.533 132.985 217.398 122.309C216.264 111.327 215.372 101.413 214.723 92.5663C214.075 83.4148 213.75 73.8058 213.75 63.7392C213.75 57.0281 214.561 51.8422 216.182 48.1816C217.966 44.5211 220.074 42.5382 222.506 42.2332ZM425.69 52.2998C425.041 62.9765 424.555 73.3482 424.231 83.4148C424.068 93.4814 423.987 101.108 423.987 106.293C423.987 111.784 424.068 117.123 424.231 122.309C424.393 127.189 424.555 131.307 424.717 134.663H419.123C418.15 116.665 416.772 102.48 414.989 92.1087C413.205 81.432 410.125 73.9583 405.747 69.6876C401.532 65.1119 395.127 62.824 386.534 62.824H366.349C360.836 62.824 356.621 63.7391 353.702 65.5694C350.946 67.0947 349.081 70.6027 348.109 76.0936C347.136 81.2795 346.649 89.5158 346.649 100.803V327.759C346.649 338.741 347.136 346.977 348.109 352.468C349.081 357.959 350.946 361.619 353.702 363.45C356.621 364.975 360.836 365.738 366.349 365.738H384.102C394.317 365.738 402.018 363.145 407.206 357.959C412.557 352.773 416.367 344.384 418.637 332.792C421.069 320.895 422.852 304.88 423.987 284.747H429.581C429.095 292.983 428.851 303.965 428.851 317.692C428.851 323.488 428.932 331.877 429.095 342.859C429.419 353.536 429.905 364.67 430.554 376.262C422.285 375.652 412.962 375.347 402.586 375.347C392.209 375.042 382.967 374.889 374.861 374.889C371.294 374.889 366.673 374.889 360.998 374.889C355.486 374.889 349.487 375.042 343.001 375.347C336.516 375.347 329.949 375.499 323.302 375.804C316.654 375.804 310.331 375.957 304.332 376.262V367.11C309.845 366.5 313.979 365.28 316.736 363.45C319.654 361.619 321.6 357.959 322.572 352.468C323.545 346.977 324.032 338.741 324.032 327.759V100.803C324.032 89.5158 323.545 81.2795 322.572 76.0936C321.6 70.6027 319.654 66.9422 316.736 65.1119C313.979 62.9765 309.845 61.7563 304.332 61.4513V52.2998C310.331 52.6049 316.654 52.9099 323.302 53.215C329.949 53.215 336.516 53.3675 343.001 53.6725C349.487 53.6725 355.486 53.6725 360.998 53.6725C366.673 53.6725 371.294 53.6725 374.861 53.6725C382.319 53.6725 390.75 53.6725 400.154 53.6725C409.72 53.3675 418.232 52.9099 425.69 52.2998ZM383.859 208.79C383.859 208.79 383.859 210.315 383.859 213.366C383.859 216.416 383.859 217.941 383.859 217.941H339.353C339.353 217.941 339.353 216.416 339.353 213.366C339.353 210.315 339.353 208.79 339.353 208.79H383.859ZM390.912 148.39C390.263 165.778 389.939 179.048 389.939 188.199C390.101 197.351 390.182 205.739 390.182 213.366C390.182 220.992 390.263 229.381 390.426 238.532C390.588 247.684 390.993 260.953 391.642 278.341H386.048C385.399 268.579 384.589 259.123 383.616 249.971C382.805 240.515 380.86 232.889 377.779 227.093C374.861 220.992 369.835 217.941 362.701 217.941V208.79C368.051 208.79 372.104 206.807 374.861 202.841C377.779 198.571 379.887 193.232 381.184 186.826C382.481 180.42 383.373 173.862 383.859 167.151C384.346 160.135 384.832 153.881 385.318 148.39H390.912ZM653.903 52.2998V61.4513C648.391 61.7563 644.175 63.2816 641.257 66.027C638.501 68.7725 636.636 73.1957 635.663 79.2966C634.69 85.3976 634.204 94.0915 634.204 105.378V378.55C633.231 378.55 632.258 378.55 631.286 378.55C630.475 378.55 629.583 378.55 628.61 378.55L526.466 81.5845V323.183C526.466 334.165 526.952 342.859 527.925 349.265C529.06 355.366 531.168 359.789 534.248 362.535C537.491 364.975 542.274 366.5 548.597 367.11V376.262C545.679 375.652 541.869 375.347 537.167 375.347C532.465 375.042 528.006 374.889 523.791 374.889C519.737 374.889 515.603 375.042 511.387 375.347C507.334 375.347 503.929 375.652 501.173 376.262V367.11C506.685 366.5 510.82 364.975 513.576 362.535C516.495 359.789 518.44 355.366 519.413 349.265C520.386 342.859 520.872 334.165 520.872 323.183V100.803C520.872 89.5158 520.386 81.2795 519.413 76.0936C518.44 70.6027 516.495 66.9422 513.576 65.1119C510.82 62.9765 506.685 61.7563 501.173 61.4513V52.2998C503.929 52.6049 507.334 52.9099 511.387 53.215C515.603 53.52 519.737 53.6725 523.791 53.6725C527.358 53.6725 530.762 53.52 534.005 53.215C537.248 52.9099 540.166 52.6049 542.76 52.2998L628.61 301.22V105.378C628.61 94.0915 628.043 85.3976 626.908 79.2966C625.935 73.1957 623.827 68.7725 620.585 66.027C617.504 63.2816 612.802 61.7563 606.479 61.4513V52.2998C609.398 52.6049 613.208 52.9099 617.91 53.215C622.774 53.52 627.232 53.6725 631.286 53.6725C635.501 53.6725 639.636 53.52 643.689 53.215C647.904 52.9099 651.309 52.6049 653.903 52.2998ZM866.231 52.2998V61.4513C863.151 62.6715 859.827 66.1795 856.26 71.9755C852.855 77.7714 849.775 87.533 847.018 101.26L789.866 378.55C789.542 378.55 789.217 378.55 788.893 378.55C788.569 378.55 788.245 378.55 787.92 378.55C787.596 378.55 787.272 378.55 786.947 378.55C786.623 378.55 786.299 378.55 785.975 378.55L726.634 90.7359C724.202 79.1441 721.445 71.5179 718.365 67.8573C715.284 63.8917 712.447 61.7563 709.853 61.4513V52.2998C713.095 52.6049 717.068 52.9099 721.769 53.215C726.633 53.52 731.335 53.6725 735.875 53.6725C742.198 53.6725 748.116 53.52 753.629 53.215C759.141 52.9099 763.6 52.6049 767.005 52.2998V61.4513C761.492 61.7563 757.277 62.9765 754.358 65.1119C751.602 67.2472 750.062 71.0603 749.738 76.5512C749.576 81.737 750.548 89.5157 752.656 99.8874L797.891 325.471L794 333.25L836.317 126.427C839.722 109.954 841.343 97.142 841.181 87.9905C841.019 78.534 839.155 71.8229 835.588 67.8573C832.021 63.8917 826.832 61.7563 820.023 61.4513V52.2998C824.725 52.6049 829.508 52.9099 834.372 53.215C839.236 53.52 843.776 53.6725 847.991 53.6725C852.207 53.6725 855.692 53.52 858.449 53.215C861.205 52.9099 863.799 52.6049 866.231 52.2998ZM999.33 45.8938C1014.73 45.8938 1028.19 52.4523 1039.7 65.5694C1051.38 78.6865 1060.37 97.5996 1066.7 122.309C1073.18 146.712 1076.43 176.455 1076.43 211.535C1076.43 245.701 1073.1 275.596 1066.45 301.22C1059.97 326.844 1050.89 346.825 1039.22 361.162C1027.54 375.499 1014.17 382.668 999.087 382.668C983.684 382.668 970.146 376.109 958.472 362.992C946.961 349.875 937.963 330.962 931.477 306.253C925.154 281.544 921.992 251.802 921.992 217.026C921.992 182.861 925.316 152.966 931.964 127.342C938.611 101.718 947.691 81.737 959.202 67.3997C970.876 53.0624 984.252 45.8938 999.33 45.8938ZM998.358 54.1301C987.819 54.1301 978.658 60.9937 970.876 74.7209C963.093 88.4481 957.013 107.361 952.636 131.46C948.42 155.559 946.312 183.471 946.312 215.196C946.312 247.531 948.663 275.748 953.365 299.847C958.229 323.641 964.715 342.096 972.821 355.213C981.09 368.025 990.17 374.431 1000.06 374.431C1010.6 374.431 1019.76 367.568 1027.54 353.841C1035.32 340.113 1041.32 321.2 1045.54 297.102C1049.92 272.698 1052.1 244.786 1052.1 213.366C1052.1 180.725 1049.67 152.508 1044.81 128.715C1040.11 104.921 1033.7 86.6178 1025.6 73.8058C1017.49 60.6887 1008.41 54.1301 998.358 54.1301ZM1208.34 52.2998V61.4513C1202.83 61.7563 1198.61 62.9765 1195.69 65.1119C1192.93 66.9422 1191.07 70.6027 1190.1 76.0936C1189.12 81.2795 1188.64 89.5158 1188.64 100.803V327.759C1188.64 338.741 1189.12 346.977 1190.1 352.468C1191.07 357.959 1192.93 361.619 1195.69 363.45C1198.61 364.975 1202.83 365.738 1208.34 365.738H1226.09C1233.71 365.738 1239.87 364.212 1244.57 361.162C1249.44 358.111 1253.25 353.383 1256 346.977C1258.92 340.266 1261.11 331.42 1262.57 320.438C1264.03 309.456 1265.17 296.034 1265.98 280.171H1271.57C1271.08 289.628 1270.84 302.135 1270.84 317.692C1270.84 323.488 1270.92 331.877 1271.08 342.859C1271.41 353.536 1271.89 364.67 1272.54 376.262C1264.27 375.652 1254.95 375.347 1244.57 375.347C1234.2 375.042 1224.96 374.889 1216.85 374.889C1213.28 374.889 1208.66 374.889 1202.99 374.889C1197.47 374.889 1191.48 375.042 1184.99 375.347C1178.5 375.347 1171.94 375.499 1165.29 375.804C1158.64 375.804 1152.32 375.957 1146.32 376.262V367.11C1151.83 366.5 1155.97 365.28 1158.72 363.45C1161.64 361.619 1163.59 357.959 1164.56 352.468C1165.53 346.977 1166.02 338.741 1166.02 327.759V100.803C1166.02 89.5158 1165.53 81.2795 1164.56 76.0936C1163.59 70.6027 1161.64 66.9422 1158.72 65.1119C1155.97 62.9765 1151.83 61.7563 1146.32 61.4513V52.2998C1149.73 52.6049 1154.18 52.9099 1159.7 53.215C1165.21 53.52 1171.13 53.6725 1177.45 53.6725C1183.13 53.6725 1188.72 53.52 1194.23 53.215C1199.91 52.9099 1204.61 52.6049 1208.34 52.2998ZM1459.3 52.2998C1458.65 62.9765 1458.16 73.3482 1457.84 83.4148C1457.67 93.4814 1457.59 101.108 1457.59 106.293C1457.59 111.784 1457.67 117.123 1457.84 122.309C1458 127.189 1458.16 131.307 1458.32 134.663H1452.73C1451.76 116.665 1450.38 102.48 1448.59 92.1087C1446.81 81.432 1443.73 73.9583 1439.35 69.6876C1435.14 65.1119 1428.73 62.824 1420.14 62.824H1399.95C1394.44 62.824 1390.23 63.7391 1387.31 65.5694C1384.55 67.0947 1382.69 70.6027 1381.71 76.0936C1380.74 81.2795 1380.25 89.5158 1380.25 100.803V327.759C1380.25 338.741 1380.74 346.977 1381.71 352.468C1382.69 357.959 1384.55 361.619 1387.31 363.45C1390.23 364.975 1394.44 365.738 1399.95 365.738H1417.71C1427.92 365.738 1435.62 363.145 1440.81 357.959C1446.16 352.773 1449.97 344.384 1452.24 332.792C1454.67 320.895 1456.46 304.88 1457.59 284.747H1463.19C1462.7 292.983 1462.46 303.965 1462.46 317.692C1462.46 323.488 1462.54 331.877 1462.7 342.859C1463.02 353.536 1463.51 364.67 1464.16 376.262C1455.89 375.652 1446.57 375.347 1436.19 375.347C1425.81 375.042 1416.57 374.889 1408.47 374.889C1404.9 374.889 1400.28 374.889 1394.6 374.889C1389.09 374.889 1383.09 375.042 1376.61 375.347C1370.12 375.347 1363.56 375.499 1356.91 375.804C1350.26 375.804 1343.94 375.957 1337.94 376.262V367.11C1343.45 366.5 1347.58 365.28 1350.34 363.45C1353.26 361.619 1355.21 357.959 1356.18 352.468C1357.15 346.977 1357.64 338.741 1357.64 327.759V100.803C1357.64 89.5158 1357.15 81.2795 1356.18 76.0936C1355.21 70.6027 1353.26 66.9422 1350.34 65.1119C1347.58 62.9765 1343.45 61.7563 1337.94 61.4513V52.2998C1343.94 52.6049 1350.26 52.9099 1356.91 53.215C1363.56 53.215 1370.12 53.3675 1376.61 53.6725C1383.09 53.6725 1389.09 53.6725 1394.6 53.6725C1400.28 53.6725 1404.9 53.6725 1408.47 53.6725C1415.92 53.6725 1424.36 53.6725 1433.76 53.6725C1443.33 53.3675 1451.84 52.9099 1459.3 52.2998ZM1417.46 208.79C1417.46 208.79 1417.46 210.315 1417.46 213.366C1417.46 216.416 1417.46 217.941 1417.46 217.941H1372.96C1372.96 217.941 1372.96 216.416 1372.96 213.366C1372.96 210.315 1372.96 208.79 1372.96 208.79H1417.46ZM1424.52 148.39C1423.87 165.778 1423.54 179.048 1423.54 188.199C1423.71 197.351 1423.79 205.739 1423.79 213.366C1423.79 220.992 1423.87 229.381 1424.03 238.532C1424.19 247.684 1424.6 260.953 1425.25 278.341H1419.65C1419.01 268.579 1418.19 259.123 1417.22 249.971C1416.41 240.515 1414.47 232.889 1411.38 227.093C1408.47 220.992 1403.44 217.941 1396.31 217.941V208.79C1401.66 208.79 1405.71 206.807 1408.47 202.841C1411.38 198.571 1413.49 193.232 1414.79 186.826C1416.09 180.42 1416.98 173.862 1417.46 167.151C1417.95 160.135 1418.44 153.881 1418.92 148.39H1424.52ZM1428.17 -47.4512C1431.41 -51.4168 1434.33 -52.7895 1436.92 -51.5693C1439.68 -50.6542 1441.7 -48.2138 1443 -44.2482C1444.3 -40.2825 1444.62 -35.8593 1443.97 -30.9785C1443.33 -26.4028 1441.3 -21.9796 1437.89 -17.7089C1434.49 -13.7433 1430.52 -10.0827 1425.98 -6.72717C1421.6 -3.67668 1416.41 0.136434 1410.41 4.71217C1404.58 8.98285 1397.44 15.0838 1389.01 23.0151L1387.31 17.0667C1394.77 6.38995 1400.85 -2.91405 1405.55 -10.8453C1410.41 -19.0816 1414.55 -26.2503 1417.95 -32.3513C1421.36 -38.4522 1424.76 -43.4856 1428.17 -47.4512ZM1656.14 52.2998C1655.49 62.9765 1655 73.3482 1654.68 83.4148C1654.51 93.4814 1654.43 101.108 1654.43 106.293C1654.43 111.784 1654.51 117.123 1654.68 122.309C1654.84 127.189 1655 131.307 1655.16 134.663H1649.57C1648.6 116.665 1647.22 102.48 1645.44 92.1087C1643.65 81.432 1640.57 73.9583 1636.19 69.6876C1631.98 65.1119 1625.57 62.824 1616.98 62.824H1596.79C1591.28 62.824 1587.07 63.7391 1584.15 65.5694C1581.39 67.0947 1579.53 70.6027 1578.55 76.0936C1577.58 81.2795 1577.1 89.5158 1577.1 100.803V327.759C1577.1 338.741 1577.58 346.977 1578.55 352.468C1579.53 357.959 1581.39 361.619 1584.15 363.45C1587.07 364.975 1591.28 365.738 1596.79 365.738H1614.55C1624.76 365.738 1632.46 363.145 1637.65 357.959C1643 352.773 1646.81 344.384 1649.08 332.792C1651.52 320.895 1653.3 304.88 1654.43 284.747H1660.03C1659.54 292.983 1659.3 303.965 1659.3 317.692C1659.3 323.488 1659.38 331.877 1659.54 342.859C1659.87 353.536 1660.35 364.67 1661 376.262C1652.73 375.652 1643.41 375.347 1633.03 375.347C1622.66 375.042 1613.41 374.889 1605.31 374.889C1601.74 374.889 1597.12 374.889 1591.44 374.889C1585.93 374.889 1579.93 375.042 1573.45 375.347C1566.96 375.347 1560.4 375.499 1553.75 375.804C1547.1 375.804 1540.78 375.957 1534.78 376.262V367.11C1540.29 366.5 1544.43 365.28 1547.18 363.45C1550.1 361.619 1552.05 357.959 1553.02 352.468C1553.99 346.977 1554.48 338.741 1554.48 327.759V100.803C1554.48 89.5158 1553.99 81.2795 1553.02 76.0936C1552.05 70.6027 1550.1 66.9422 1547.18 65.1119C1544.43 62.9765 1540.29 61.7563 1534.78 61.4513V52.2998C1540.78 52.6049 1547.1 52.9099 1553.75 53.215C1560.4 53.215 1566.96 53.3675 1573.45 53.6725C1579.93 53.6725 1585.93 53.6725 1591.44 53.6725C1597.12 53.6725 1601.74 53.6725 1605.31 53.6725C1612.77 53.6725 1621.2 53.6725 1630.6 53.6725C1640.17 53.3675 1648.68 52.9099 1656.14 52.2998ZM1614.31 208.79C1614.31 208.79 1614.31 210.315 1614.31 213.366C1614.31 216.416 1614.31 217.941 1614.31 217.941H1569.8C1569.8 217.941 1569.8 216.416 1569.8 213.366C1569.8 210.315 1569.8 208.79 1569.8 208.79H1614.31ZM1621.36 148.39C1620.71 165.778 1620.39 179.048 1620.39 188.199C1620.55 197.351 1620.63 205.739 1620.63 213.366C1620.63 220.992 1620.71 229.381 1620.87 238.532C1621.03 247.684 1621.44 260.953 1622.09 278.341H1616.49C1615.85 268.579 1615.04 259.123 1614.06 249.971C1613.25 240.515 1611.31 232.889 1608.23 227.093C1605.31 220.992 1600.28 217.941 1593.15 217.941V208.79C1598.5 208.79 1602.55 206.807 1605.31 202.841C1608.23 198.571 1610.33 193.232 1611.63 186.826C1612.93 180.42 1613.82 173.862 1614.31 167.151C1614.79 160.135 1615.28 153.881 1615.76 148.39H1621.36Z" fill="#D4AB7C"/>
<path d="M80.0163 52.2998V61.4513C74.5038 61.7563 70.2883 62.9765 67.3699 65.1119C64.6136 66.9422 62.749 70.6027 61.7762 76.0936C60.8034 81.2795 60.317 89.5158 60.317 100.803V327.759C60.317 338.741 60.8034 346.977 61.7762 352.468C62.749 357.959 64.6136 361.619 67.3699 363.45C70.2883 364.975 74.5038 365.738 80.0163 365.738H97.77C105.39 365.738 111.551 364.212 116.253 361.162C121.117 358.111 124.928 353.383 127.684 346.977C130.602 340.266 132.791 331.42 134.25 320.438C135.709 309.456 136.844 296.034 137.655 280.171H143.249C142.762 289.628 142.519 302.135 142.519 317.692C142.519 323.488 142.6 331.877 142.762 342.859C143.087 353.536 143.573 364.67 144.221 376.262C135.953 375.652 126.63 375.347 116.253 375.347C105.877 375.042 96.6351 374.889 88.5284 374.889C84.9614 374.889 80.3406 374.889 74.6659 374.889C69.1533 374.889 63.1544 375.042 56.669 375.347C50.1836 375.347 43.6172 375.499 36.9697 375.804C30.3222 375.804 23.999 375.957 18 376.262V367.11C23.5126 366.5 27.647 365.28 30.4033 363.45C33.3217 361.619 35.2673 357.959 36.2401 352.468C37.2129 346.977 37.6993 338.741 37.6993 327.759V100.803C37.6993 89.5158 37.2129 81.2795 36.2401 76.0936C35.2673 70.6027 33.3217 66.9422 30.4033 65.1119C27.647 62.9765 23.5126 61.7563 18 61.4513V52.2998C21.4048 52.6049 25.8635 52.9099 31.3761 53.215C36.8886 53.52 42.8065 53.6725 49.1298 53.6725C54.8045 53.6725 60.3981 53.52 65.9107 53.215C71.5854 52.9099 76.2873 52.6049 80.0163 52.2998ZM222.506 42.2332C224.938 42.2332 226.964 44.0635 228.586 47.7241C230.37 51.3847 231.262 56.5705 231.262 63.2816C231.262 73.3482 230.937 82.8047 230.289 91.6511C229.64 100.192 228.749 109.954 227.613 120.936C226.64 131.613 225.505 145.34 224.208 162.117H220.803C219.668 146.255 218.533 132.985 217.398 122.309C216.264 111.327 215.372 101.413 214.723 92.5663C214.075 83.4148 213.75 73.8058 213.75 63.7392C213.75 57.0281 214.561 51.8422 216.182 48.1816C217.966 44.5211 220.074 42.5382 222.506 42.2332ZM425.69 52.2998C425.041 62.9765 424.555 73.3482 424.231 83.4148C424.068 93.4814 423.987 101.108 423.987 106.293C423.987 111.784 424.068 117.123 424.231 122.309C424.393 127.189 424.555 131.307 424.717 134.663H419.123C418.15 116.665 416.772 102.48 414.989 92.1087C413.205 81.432 410.125 73.9583 405.747 69.6876C401.532 65.1119 395.127 62.824 386.534 62.824H366.349C360.836 62.824 356.621 63.7391 353.702 65.5694C350.946 67.0947 349.081 70.6027 348.109 76.0936C347.136 81.2795 346.649 89.5158 346.649 100.803V327.759C346.649 338.741 347.136 346.977 348.109 352.468C349.081 357.959 350.946 361.619 353.702 363.45C356.621 364.975 360.836 365.738 366.349 365.738H384.102C394.317 365.738 402.018 363.145 407.206 357.959C412.557 352.773 416.367 344.384 418.637 332.792C421.069 320.895 422.852 304.88 423.987 284.747H429.581C429.095 292.983 428.851 303.965 428.851 317.692C428.851 323.488 428.932 331.877 429.095 342.859C429.419 353.536 429.905 364.67 430.554 376.262C422.285 375.652 412.962 375.347 402.586 375.347C392.209 375.042 382.967 374.889 374.861 374.889C371.294 374.889 366.673 374.889 360.998 374.889C355.486 374.889 349.487 375.042 343.001 375.347C336.516 375.347 329.949 375.499 323.302 375.804C316.654 375.804 310.331 375.957 304.332 376.262V367.11C309.845 366.5 313.979 365.28 316.736 363.45C319.654 361.619 321.6 357.959 322.572 352.468C323.545 346.977 324.032 338.741 324.032 327.759V100.803C324.032 89.5158 323.545 81.2795 322.572 76.0936C321.6 70.6027 319.654 66.9422 316.736 65.1119C313.979 62.9765 309.845 61.7563 304.332 61.4513V52.2998C310.331 52.6049 316.654 52.9099 323.302 53.215C329.949 53.215 336.516 53.3675 343.001 53.6725C349.487 53.6725 355.486 53.6725 360.998 53.6725C366.673 53.6725 371.294 53.6725 374.861 53.6725C382.319 53.6725 390.75 53.6725 400.154 53.6725C409.72 53.3675 418.232 52.9099 425.69 52.2998ZM383.859 208.79C383.859 208.79 383.859 210.315 383.859 213.366C383.859 216.416 383.859 217.941 383.859 217.941H339.353C339.353 217.941 339.353 216.416 339.353 213.366C339.353 210.315 339.353 208.79 339.353 208.79H383.859ZM390.912 148.39C390.263 165.778 389.939 179.048 389.939 188.199C390.101 197.351 390.182 205.739 390.182 213.366C390.182 220.992 390.263 229.381 390.426 238.532C390.588 247.684 390.993 260.953 391.642 278.341H386.048C385.399 268.579 384.589 259.123 383.616 249.971C382.805 240.515 380.86 232.889 377.779 227.093C374.861 220.992 369.835 217.941 362.701 217.941V208.79C368.051 208.79 372.104 206.807 374.861 202.841C377.779 198.571 379.887 193.232 381.184 186.826C382.481 180.42 383.373 173.862 383.859 167.151C384.346 160.135 384.832 153.881 385.318 148.39H390.912ZM653.903 52.2998V61.4513C648.391 61.7563 644.175 63.2816 641.257 66.027C638.501 68.7725 636.636 73.1957 635.663 79.2966C634.69 85.3976 634.204 94.0915 634.204 105.378V378.55C633.231 378.55 632.258 378.55 631.286 378.55C630.475 378.55 629.583 378.55 628.61 378.55L526.466 81.5845V323.183C526.466 334.165 526.952 342.859 527.925 349.265C529.06 355.366 531.168 359.789 534.248 362.535C537.491 364.975 542.274 366.5 548.597 367.11V376.262C545.679 375.652 541.869 375.347 537.167 375.347C532.465 375.042 528.006 374.889 523.791 374.889C519.737 374.889 515.603 375.042 511.387 375.347C507.334 375.347 503.929 375.652 501.173 376.262V367.11C506.685 366.5 510.82 364.975 513.576 362.535C516.495 359.789 518.44 355.366 519.413 349.265C520.386 342.859 520.872 334.165 520.872 323.183V100.803C520.872 89.5158 520.386 81.2795 519.413 76.0936C518.44 70.6027 516.495 66.9422 513.576 65.1119C510.82 62.9765 506.685 61.7563 501.173 61.4513V52.2998C503.929 52.6049 507.334 52.9099 511.387 53.215C515.603 53.52 519.737 53.6725 523.791 53.6725C527.358 53.6725 530.762 53.52 534.005 53.215C537.248 52.9099 540.166 52.6049 542.76 52.2998L628.61 301.22V105.378C628.61 94.0915 628.043 85.3976 626.908 79.2966C625.935 73.1957 623.827 68.7725 620.585 66.027C617.504 63.2816 612.802 61.7563 606.479 61.4513V52.2998C609.398 52.6049 613.208 52.9099 617.91 53.215C622.774 53.52 627.232 53.6725 631.286 53.6725C635.501 53.6725 639.636 53.52 643.689 53.215C647.904 52.9099 651.309 52.6049 653.903 52.2998ZM866.231 52.2998V61.4513C863.151 62.6715 859.827 66.1795 856.26 71.9755C852.855 77.7714 849.775 87.533 847.018 101.26L789.866 378.55C789.542 378.55 789.217 378.55 788.893 378.55C788.569 378.55 788.245 378.55 787.92 378.55C787.596 378.55 787.272 378.55 786.947 378.55C786.623 378.55 786.299 378.55 785.975 378.55L726.634 90.7359C724.202 79.1441 721.445 71.5179 718.365 67.8573C715.284 63.8917 712.447 61.7563 709.853 61.4513V52.2998C713.095 52.6049 717.068 52.9099 721.769 53.215C726.633 53.52 731.335 53.6725 735.875 53.6725C742.198 53.6725 748.116 53.52 753.629 53.215C759.141 52.9099 763.6 52.6049 767.005 52.2998V61.4513C761.492 61.7563 757.277 62.9765 754.358 65.1119C751.602 67.2472 750.062 71.0603 749.738 76.5512C749.576 81.737 750.548 89.5157 752.656 99.8874L797.891 325.471L794 333.25L836.317 126.427C839.722 109.954 841.343 97.142 841.181 87.9905C841.019 78.534 839.155 71.8229 835.588 67.8573C832.021 63.8917 826.832 61.7563 820.023 61.4513V52.2998C824.725 52.6049 829.508 52.9099 834.372 53.215C839.236 53.52 843.776 53.6725 847.991 53.6725C852.207 53.6725 855.692 53.52 858.449 53.215C861.205 52.9099 863.799 52.6049 866.231 52.2998ZM999.33 45.8938C1014.73 45.8938 1028.19 52.4523 1039.7 65.5694C1051.38 78.6865 1060.37 97.5996 1066.7 122.309C1073.18 146.712 1076.43 176.455 1076.43 211.535C1076.43 245.701 1073.1 275.596 1066.45 301.22C1059.97 326.844 1050.89 346.825 1039.22 361.162C1027.54 375.499 1014.17 382.668 999.087 382.668C983.684 382.668 970.146 376.109 958.472 362.992C946.961 349.875 937.963 330.962 931.477 306.253C925.154 281.544 921.992 251.802 921.992 217.026C921.992 182.861 925.316 152.966 931.964 127.342C938.611 101.718 947.691 81.737 959.202 67.3997C970.876 53.0624 984.252 45.8938 999.33 45.8938ZM998.358 54.1301C987.819 54.1301 978.658 60.9937 970.876 74.7209C963.093 88.4481 957.013 107.361 952.636 131.46C948.42 155.559 946.312 183.471 946.312 215.196C946.312 247.531 948.663 275.748 953.365 299.847C958.229 323.641 964.715 342.096 972.821 355.213C981.09 368.025 990.17 374.431 1000.06 374.431C1010.6 374.431 1019.76 367.568 1027.54 353.841C1035.32 340.113 1041.32 321.2 1045.54 297.102C1049.92 272.698 1052.1 244.786 1052.1 213.366C1052.1 180.725 1049.67 152.508 1044.81 128.715C1040.11 104.921 1033.7 86.6178 1025.6 73.8058C1017.49 60.6887 1008.41 54.1301 998.358 54.1301ZM1208.34 52.2998V61.4513C1202.83 61.7563 1198.61 62.9765 1195.69 65.1119C1192.93 66.9422 1191.07 70.6027 1190.1 76.0936C1189.12 81.2795 1188.64 89.5158 1188.64 100.803V327.759C1188.64 338.741 1189.12 346.977 1190.1 352.468C1191.07 357.959 1192.93 361.619 1195.69 363.45C1198.61 364.975 1202.83 365.738 1208.34 365.738H1226.09C1233.71 365.738 1239.87 364.212 1244.57 361.162C1249.44 358.111 1253.25 353.383 1256 346.977C1258.92 340.266 1261.11 331.42 1262.57 320.438C1264.03 309.456 1265.17 296.034 1265.98 280.171H1271.57C1271.08 289.628 1270.84 302.135 1270.84 317.692C1270.84 323.488 1270.92 331.877 1271.08 342.859C1271.41 353.536 1271.89 364.67 1272.54 376.262C1264.27 375.652 1254.95 375.347 1244.57 375.347C1234.2 375.042 1224.96 374.889 1216.85 374.889C1213.28 374.889 1208.66 374.889 1202.99 374.889C1197.47 374.889 1191.48 375.042 1184.99 375.347C1178.5 375.347 1171.94 375.499 1165.29 375.804C1158.64 375.804 1152.32 375.957 1146.32 376.262V367.11C1151.83 366.5 1155.97 365.28 1158.72 363.45C1161.64 361.619 1163.59 357.959 1164.56 352.468C1165.53 346.977 1166.02 338.741 1166.02 327.759V100.803C1166.02 89.5158 1165.53 81.2795 1164.56 76.0936C1163.59 70.6027 1161.64 66.9422 1158.72 65.1119C1155.97 62.9765 1151.83 61.7563 1146.32 61.4513V52.2998C1149.73 52.6049 1154.18 52.9099 1159.7 53.215C1165.21 53.52 1171.13 53.6725 1177.45 53.6725C1183.13 53.6725 1188.72 53.52 1194.23 53.215C1199.91 52.9099 1204.61 52.6049 1208.34 52.2998ZM1459.3 52.2998C1458.65 62.9765 1458.16 73.3482 1457.84 83.4148C1457.67 93.4814 1457.59 101.108 1457.59 106.293C1457.59 111.784 1457.67 117.123 1457.84 122.309C1458 127.189 1458.16 131.307 1458.32 134.663H1452.73C1451.76 116.665 1450.38 102.48 1448.59 92.1087C1446.81 81.432 1443.73 73.9583 1439.35 69.6876C1435.14 65.1119 1428.73 62.824 1420.14 62.824H1399.95C1394.44 62.824 1390.23 63.7391 1387.31 65.5694C1384.55 67.0947 1382.69 70.6027 1381.71 76.0936C1380.74 81.2795 1380.25 89.5158 1380.25 100.803V327.759C1380.25 338.741 1380.74 346.977 1381.71 352.468C1382.69 357.959 1384.55 361.619 1387.31 363.45C1390.23 364.975 1394.44 365.738 1399.95 365.738H1417.71C1427.92 365.738 1435.62 363.145 1440.81 357.959C1446.16 352.773 1449.97 344.384 1452.24 332.792C1454.67 320.895 1456.46 304.88 1457.59 284.747H1463.19C1462.7 292.983 1462.46 303.965 1462.46 317.692C1462.46 323.488 1462.54 331.877 1462.7 342.859C1463.02 353.536 1463.51 364.67 1464.16 376.262C1455.89 375.652 1446.57 375.347 1436.19 375.347C1425.81 375.042 1416.57 374.889 1408.47 374.889C1404.9 374.889 1400.28 374.889 1394.6 374.889C1389.09 374.889 1383.09 375.042 1376.61 375.347C1370.12 375.347 1363.56 375.499 1356.91 375.804C1350.26 375.804 1343.94 375.957 1337.94 376.262V367.11C1343.45 366.5 1347.58 365.28 1350.34 363.45C1353.26 361.619 1355.21 357.959 1356.18 352.468C1357.15 346.977 1357.64 338.741 1357.64 327.759V100.803C1357.64 89.5158 1357.15 81.2795 1356.18 76.0936C1355.21 70.6027 1353.26 66.9422 1350.34 65.1119C1347.58 62.9765 1343.45 61.7563 1337.94 61.4513V52.2998C1343.94 52.6049 1350.26 52.9099 1356.91 53.215C1363.56 53.215 1370.12 53.3675 1376.61 53.6725C1383.09 53.6725 1389.09 53.6725 1394.6 53.6725C1400.28 53.6725 1404.9 53.6725 1408.47 53.6725C1415.92 53.6725 1424.36 53.6725 1433.76 53.6725C1443.33 53.3675 1451.84 52.9099 1459.3 52.2998ZM1417.46 208.79C1417.46 208.79 1417.46 210.315 1417.46 213.366C1417.46 216.416 1417.46 217.941 1417.46 217.941H1372.96C1372.96 217.941 1372.96 216.416 1372.96 213.366C1372.96 210.315 1372.96 208.79 1372.96 208.79H1417.46ZM1424.52 148.39C1423.87 165.778 1423.54 179.048 1423.54 188.199C1423.71 197.351 1423.79 205.739 1423.79 213.366C1423.79 220.992 1423.87 229.381 1424.03 238.532C1424.19 247.684 1424.6 260.953 1425.25 278.341H1419.65C1419.01 268.579 1418.19 259.123 1417.22 249.971C1416.41 240.515 1414.47 232.889 1411.38 227.093C1408.47 220.992 1403.44 217.941 1396.31 217.941V208.79C1401.66 208.79 1405.71 206.807 1408.47 202.841C1411.38 198.571 1413.49 193.232 1414.79 186.826C1416.09 180.42 1416.98 173.862 1417.46 167.151C1417.95 160.135 1418.44 153.881 1418.92 148.39H1424.52ZM1428.17 -47.4512C1431.41 -51.4168 1434.33 -52.7895 1436.92 -51.5693C1439.68 -50.6542 1441.7 -48.2138 1443 -44.2482C1444.3 -40.2825 1444.62 -35.8593 1443.97 -30.9785C1443.33 -26.4028 1441.3 -21.9796 1437.89 -17.7089C1434.49 -13.7433 1430.52 -10.0827 1425.98 -6.72717C1421.6 -3.67668 1416.41 0.136434 1410.41 4.71217C1404.58 8.98285 1397.44 15.0838 1389.01 23.0151L1387.31 17.0667C1394.77 6.38995 1400.85 -2.91405 1405.55 -10.8453C1410.41 -19.0816 1414.55 -26.2503 1417.95 -32.3513C1421.36 -38.4522 1424.76 -43.4856 1428.17 -47.4512ZM1656.14 52.2998C1655.49 62.9765 1655 73.3482 1654.68 83.4148C1654.51 93.4814 1654.43 101.108 1654.43 106.293C1654.43 111.784 1654.51 117.123 1654.68 122.309C1654.84 127.189 1655 131.307 1655.16 134.663H1649.57C1648.6 116.665 1647.22 102.48 1645.44 92.1087C1643.65 81.432 1640.57 73.9583 1636.19 69.6876C1631.98 65.1119 1625.57 62.824 1616.98 62.824H1596.79C1591.28 62.824 1587.07 63.7391 1584.15 65.5694C1581.39 67.0947 1579.53 70.6027 1578.55 76.0936C1577.58 81.2795 1577.1 89.5158 1577.1 100.803V327.759C1577.1 338.741 1577.58 346.977 1578.55 352.468C1579.53 357.959 1581.39 361.619 1584.15 363.45C1587.07 364.975 1591.28 365.738 1596.79 365.738H1614.55C1624.76 365.738 1632.46 363.145 1637.65 357.959C1643 352.773 1646.81 344.384 1649.08 332.792C1651.52 320.895 1653.3 304.88 1654.43 284.747H1660.03C1659.54 292.983 1659.3 303.965 1659.3 317.692C1659.3 323.488 1659.38 331.877 1659.54 342.859C1659.87 353.536 1660.35 364.67 1661 376.262C1652.73 375.652 1643.41 375.347 1633.03 375.347C1622.66 375.042 1613.41 374.889 1605.31 374.889C1601.74 374.889 1597.12 374.889 1591.44 374.889C1585.93 374.889 1579.93 375.042 1573.45 375.347C1566.96 375.347 1560.4 375.499 1553.75 375.804C1547.1 375.804 1540.78 375.957 1534.78 376.262V367.11C1540.29 366.5 1544.43 365.28 1547.18 363.45C1550.1 361.619 1552.05 357.959 1553.02 352.468C1553.99 346.977 1554.48 338.741 1554.48 327.759V100.803C1554.48 89.5158 1553.99 81.2795 1553.02 76.0936C1552.05 70.6027 1550.1 66.9422 1547.18 65.1119C1544.43 62.9765 1540.29 61.7563 1534.78 61.4513V52.2998C1540.78 52.6049 1547.1 52.9099 1553.75 53.215C1560.4 53.215 1566.96 53.3675 1573.45 53.6725C1579.93 53.6725 1585.93 53.6725 1591.44 53.6725C1597.12 53.6725 1601.74 53.6725 1605.31 53.6725C1612.77 53.6725 1621.2 53.6725 1630.6 53.6725C1640.17 53.3675 1648.68 52.9099 1656.14 52.2998ZM1614.31 208.79C1614.31 208.79 1614.31 210.315 1614.31 213.366C1614.31 216.416 1614.31 217.941 1614.31 217.941H1569.8C1569.8 217.941 1569.8 216.416 1569.8 213.366C1569.8 210.315 1569.8 208.79 1569.8 208.79H1614.31ZM1621.36 148.39C1620.71 165.778 1620.39 179.048 1620.39 188.199C1620.55 197.351 1620.63 205.739 1620.63 213.366C1620.63 220.992 1620.71 229.381 1620.87 238.532C1621.03 247.684 1621.44 260.953 1622.09 278.341H1616.49C1615.85 268.579 1615.04 259.123 1614.06 249.971C1613.25 240.515 1611.31 232.889 1608.23 227.093C1605.31 220.992 1600.28 217.941 1593.15 217.941V208.79C1598.5 208.79 1602.55 206.807 1605.31 202.841C1608.23 198.571 1610.33 193.232 1611.63 186.826C1612.93 180.42 1613.82 173.862 1614.31 167.151C1614.79 160.135 1615.28 153.881 1615.76 148.39H1621.36Z" stroke="#D4AB7C" stroke-width="10" mask="url(#path-2-outside-2_3_8)"/>
</g>
<defs>
<clipPath id="clip0_3_8">
<rect width="900" height="864" fill="white"/>
</clipPath>
</defs>
</svg>
