<svg width="594" height="220" viewBox="0 0 594 220" fill="none" xmlns="http://www.w3.org/2000/svg">
<rect width="594" height="220" fill="#373D52"/>
<path d="M54.275 57.9V59.4C52.575 59.45 51.275 59.65 50.375 60C49.525 60.3 48.95 60.9 48.65 61.8C48.35 62.65 48.2 64 48.2 65.85V103.05C48.2 104.85 48.35 106.2 48.65 107.1C48.95 108 49.525 108.6 50.375 108.9C51.275 109.15 52.575 109.275 54.275 109.275H59.75C62.1 109.275 64 109.025 65.45 108.525C66.95 108.025 68.125 107.25 68.975 106.2C69.875 105.1 70.55 103.65 71 101.85C71.45 100.05 71.8 97.85 72.05 95.25H73.775C73.625 96.8 73.55 98.85 73.55 101.4C73.55 102.35 73.575 103.725 73.625 105.525C73.725 107.275 73.875 109.1 74.075 111C71.525 110.9 68.65 110.85 65.45 110.85C62.25 110.8 59.4 110.775 56.9 110.775C55.8 110.775 54.375 110.775 52.625 110.775C50.925 110.775 49.075 110.8 47.075 110.85C45.075 110.85 43.05 110.875 41 110.925C38.95 110.925 37 110.95 35.15 111V109.5C36.85 109.4 38.125 109.2 38.975 108.9C39.875 108.6 40.475 108 40.775 107.1C41.075 106.2 41.225 104.85 41.225 103.05V65.85C41.225 64 41.075 62.65 40.775 61.8C40.475 60.9 39.875 60.3 38.975 60C38.125 59.65 36.85 59.45 35.15 59.4V57.9C36.2 57.95 37.575 58 39.275 58.05C40.975 58.1 42.8 58.125 44.75 58.125C46.5 58.125 48.225 58.1 49.925 58.05C51.675 58 53.125 57.95 54.275 57.9ZM98.2168 56.25C98.9668 56.25 99.5918 56.55 100.092 57.15C100.642 57.75 100.917 58.6 100.917 59.7C100.917 61.35 100.817 62.9 100.617 64.35C100.417 65.75 100.142 67.35 99.7918 69.15C99.4918 70.9 99.1418 73.15 98.7418 75.9H97.6918C97.3418 73.3 96.9918 71.125 96.6418 69.375C96.2918 67.575 96.0168 65.95 95.8168 64.5C95.6168 63 95.5168 61.425 95.5168 59.775C95.5168 58.675 95.7668 57.825 96.2668 57.225C96.8168 56.625 97.4668 56.3 98.2168 56.25ZM160.876 57.9C160.676 59.65 160.526 61.35 160.426 63C160.376 64.65 160.351 65.9 160.351 66.75C160.351 67.65 160.376 68.525 160.426 69.375C160.476 70.175 160.526 70.85 160.576 71.4H158.851C158.551 68.45 158.126 66.125 157.576 64.425C157.026 62.675 156.076 61.45 154.726 60.75C153.426 60 151.451 59.625 148.801 59.625H142.576C140.876 59.625 139.576 59.775 138.676 60.075C137.826 60.325 137.251 60.9 136.951 61.8C136.651 62.65 136.501 64 136.501 65.85V103.05C136.501 104.85 136.651 106.2 136.951 107.1C137.251 108 137.826 108.6 138.676 108.9C139.576 109.15 140.876 109.275 142.576 109.275H148.051C151.201 109.275 153.576 108.85 155.176 108C156.826 107.15 158.001 105.775 158.701 103.875C159.451 101.925 160.001 99.3 160.351 96H162.076C161.926 97.35 161.851 99.15 161.851 101.4C161.851 102.35 161.876 103.725 161.926 105.525C162.026 107.275 162.176 109.1 162.376 111C159.826 110.9 156.951 110.85 153.751 110.85C150.551 110.8 147.701 110.775 145.201 110.775C144.101 110.775 142.676 110.775 140.926 110.775C139.226 110.775 137.376 110.8 135.376 110.85C133.376 110.85 131.351 110.875 129.301 110.925C127.251 110.925 125.301 110.95 123.451 111V109.5C125.151 109.4 126.426 109.2 127.276 108.9C128.176 108.6 128.776 108 129.076 107.1C129.376 106.2 129.526 104.85 129.526 103.05V65.85C129.526 64 129.376 62.65 129.076 61.8C128.776 60.9 128.176 60.3 127.276 60C126.426 59.65 125.151 59.45 123.451 59.4V57.9C125.301 57.95 127.251 58 129.301 58.05C131.351 58.05 133.376 58.075 135.376 58.125C137.376 58.125 139.226 58.125 140.926 58.125C142.676 58.125 144.101 58.125 145.201 58.125C147.501 58.125 150.101 58.125 153.001 58.125C155.951 58.075 158.576 58 160.876 57.9ZM147.976 83.55C147.976 83.55 147.976 83.8 147.976 84.3C147.976 84.8 147.976 85.05 147.976 85.05H134.251C134.251 85.05 134.251 84.8 134.251 84.3C134.251 83.8 134.251 83.55 134.251 83.55H147.976ZM150.151 73.65C149.951 76.5 149.851 78.675 149.851 80.175C149.901 81.675 149.926 83.05 149.926 84.3C149.926 85.55 149.951 86.925 150.001 88.425C150.051 89.925 150.176 92.1 150.376 94.95H148.651C148.451 93.35 148.201 91.8 147.901 90.3C147.651 88.75 147.051 87.5 146.101 86.55C145.201 85.55 143.651 85.05 141.451 85.05V83.55C143.101 83.55 144.351 83.225 145.201 82.575C146.101 81.875 146.751 81 147.151 79.95C147.551 78.9 147.826 77.825 147.976 76.725C148.126 75.575 148.276 74.55 148.426 73.65H150.151ZM231.254 57.9V59.4C229.554 59.45 228.254 59.7 227.354 60.15C226.504 60.6 225.929 61.325 225.629 62.325C225.329 63.325 225.179 64.75 225.179 66.6V111.375C224.879 111.375 224.579 111.375 224.279 111.375C224.029 111.375 223.754 111.375 223.454 111.375L191.954 62.7V102.3C191.954 104.1 192.104 105.525 192.404 106.575C192.754 107.575 193.404 108.3 194.354 108.75C195.354 109.15 196.829 109.4 198.779 109.5V111C197.879 110.9 196.704 110.85 195.254 110.85C193.804 110.8 192.429 110.775 191.129 110.775C189.879 110.775 188.604 110.8 187.304 110.85C186.054 110.85 185.004 110.9 184.154 111V109.5C185.854 109.4 187.129 109.15 187.979 108.75C188.879 108.3 189.479 107.575 189.779 106.575C190.079 105.525 190.229 104.1 190.229 102.3V65.85C190.229 64 190.079 62.65 189.779 61.8C189.479 60.9 188.879 60.3 187.979 60C187.129 59.65 185.854 59.45 184.154 59.4V57.9C185.004 57.95 186.054 58 187.304 58.05C188.604 58.1 189.879 58.125 191.129 58.125C192.229 58.125 193.279 58.1 194.279 58.05C195.279 58 196.179 57.95 196.979 57.9L223.454 98.7V66.6C223.454 64.75 223.279 63.325 222.929 62.325C222.629 61.325 221.979 60.6 220.979 60.15C220.029 59.7 218.579 59.45 216.629 59.4V57.9C217.529 57.95 218.704 58 220.154 58.05C221.654 58.1 223.029 58.125 224.279 58.125C225.579 58.125 226.854 58.1 228.104 58.05C229.404 58 230.454 57.95 231.254 57.9ZM296.733 57.9V59.4C295.783 59.6 294.758 60.175 293.658 61.125C292.608 62.075 291.658 63.675 290.808 65.925L273.183 111.375C273.083 111.375 272.983 111.375 272.883 111.375C272.783 111.375 272.683 111.375 272.583 111.375C272.483 111.375 272.383 111.375 272.283 111.375C272.183 111.375 272.083 111.375 271.983 111.375L253.683 64.2C252.933 62.3 252.083 61.05 251.133 60.45C250.183 59.8 249.308 59.45 248.508 59.4V57.9C249.508 57.95 250.733 58 252.183 58.05C253.683 58.1 255.133 58.125 256.533 58.125C258.483 58.125 260.308 58.1 262.008 58.05C263.708 58 265.083 57.95 266.133 57.9V59.4C264.433 59.45 263.133 59.65 262.233 60C261.383 60.35 260.908 60.975 260.808 61.875C260.758 62.725 261.058 64 261.708 65.7L275.658 102.675L274.458 103.95L287.508 70.05C288.558 67.35 289.058 65.25 289.008 63.75C288.958 62.2 288.383 61.1 287.283 60.45C286.183 59.8 284.583 59.45 282.483 59.4V57.9C283.933 57.95 285.408 58 286.908 58.05C288.408 58.1 289.808 58.125 291.108 58.125C292.408 58.125 293.483 58.1 294.333 58.05C295.183 58 295.983 57.95 296.733 57.9ZM337.779 56.85C342.529 56.85 346.679 57.925 350.229 60.075C353.829 62.225 356.604 65.325 358.554 69.375C360.554 73.375 361.554 78.25 361.554 84C361.554 89.6 360.529 94.5 358.479 98.7C356.479 102.9 353.679 106.175 350.079 108.525C346.479 110.875 342.354 112.05 337.704 112.05C332.954 112.05 328.779 110.975 325.179 108.825C321.629 106.675 318.854 103.575 316.854 99.525C314.904 95.475 313.929 90.6 313.929 84.9C313.929 79.3 314.954 74.4 317.004 70.2C319.054 66 321.854 62.725 325.404 60.375C329.004 58.025 333.129 56.85 337.779 56.85ZM337.479 58.2C334.229 58.2 331.404 59.325 329.004 61.575C326.604 63.825 324.729 66.925 323.379 70.875C322.079 74.825 321.429 79.4 321.429 84.6C321.429 89.9 322.154 94.525 323.604 98.475C325.104 102.375 327.104 105.4 329.604 107.55C332.154 109.65 334.954 110.7 338.004 110.7C341.254 110.7 344.079 109.575 346.479 107.325C348.879 105.075 350.729 101.975 352.029 98.025C353.379 94.025 354.054 89.45 354.054 84.3C354.054 78.95 353.304 74.325 351.804 70.425C350.354 66.525 348.379 63.525 345.879 61.425C343.379 59.275 340.579 58.2 337.479 58.2ZM402.234 57.9V59.4C400.534 59.45 399.234 59.65 398.334 60C397.484 60.3 396.909 60.9 396.609 61.8C396.309 62.65 396.159 64 396.159 65.85V103.05C396.159 104.85 396.309 106.2 396.609 107.1C396.909 108 397.484 108.6 398.334 108.9C399.234 109.15 400.534 109.275 402.234 109.275H407.709C410.059 109.275 411.959 109.025 413.409 108.525C414.909 108.025 416.084 107.25 416.934 106.2C417.834 105.1 418.509 103.65 418.959 101.85C419.409 100.05 419.759 97.85 420.009 95.25H421.734C421.584 96.8 421.509 98.85 421.509 101.4C421.509 102.35 421.534 103.725 421.584 105.525C421.684 107.275 421.834 109.1 422.034 111C419.484 110.9 416.609 110.85 413.409 110.85C410.209 110.8 407.359 110.775 404.859 110.775C403.759 110.775 402.334 110.775 400.584 110.775C398.884 110.775 397.034 110.8 395.034 110.85C393.034 110.85 391.009 110.875 388.959 110.925C386.909 110.925 384.959 110.95 383.109 111V109.5C384.809 109.4 386.084 109.2 386.934 108.9C387.834 108.6 388.434 108 388.734 107.1C389.034 106.2 389.184 104.85 389.184 103.05V65.85C389.184 64 389.034 62.65 388.734 61.8C388.434 60.9 387.834 60.3 386.934 60C386.084 59.65 384.809 59.45 383.109 59.4V57.9C384.159 57.95 385.534 58 387.234 58.05C388.934 58.1 390.759 58.125 392.709 58.125C394.459 58.125 396.184 58.1 397.884 58.05C399.634 58 401.084 57.95 402.234 57.9ZM479.626 57.9C479.426 59.65 479.276 61.35 479.176 63C479.126 64.65 479.101 65.9 479.101 66.75C479.101 67.65 479.126 68.525 479.176 69.375C479.226 70.175 479.276 70.85 479.326 71.4H477.601C477.301 68.45 476.876 66.125 476.326 64.425C475.776 62.675 474.826 61.45 473.476 60.75C472.176 60 470.201 59.625 467.551 59.625H461.326C459.626 59.625 458.326 59.775 457.426 60.075C456.576 60.325 456.001 60.9 455.701 61.8C455.401 62.65 455.251 64 455.251 65.85V103.05C455.251 104.85 455.401 106.2 455.701 107.1C456.001 108 456.576 108.6 457.426 108.9C458.326 109.15 459.626 109.275 461.326 109.275H466.801C469.951 109.275 472.326 108.85 473.926 108C475.576 107.15 476.751 105.775 477.451 103.875C478.201 101.925 478.751 99.3 479.101 96H480.826C480.676 97.35 480.601 99.15 480.601 101.4C480.601 102.35 480.626 103.725 480.676 105.525C480.776 107.275 480.926 109.1 481.126 111C478.576 110.9 475.701 110.85 472.501 110.85C469.301 110.8 466.451 110.775 463.951 110.775C462.851 110.775 461.426 110.775 459.676 110.775C457.976 110.775 456.126 110.8 454.126 110.85C452.126 110.85 450.101 110.875 448.051 110.925C446.001 110.925 444.051 110.95 442.201 111V109.5C443.901 109.4 445.176 109.2 446.026 108.9C446.926 108.6 447.526 108 447.826 107.1C448.126 106.2 448.276 104.85 448.276 103.05V65.85C448.276 64 448.126 62.65 447.826 61.8C447.526 60.9 446.926 60.3 446.026 60C445.176 59.65 443.901 59.45 442.201 59.4V57.9C444.051 57.95 446.001 58 448.051 58.05C450.101 58.05 452.126 58.075 454.126 58.125C456.126 58.125 457.976 58.125 459.676 58.125C461.426 58.125 462.851 58.125 463.951 58.125C466.251 58.125 468.851 58.125 471.751 58.125C474.701 58.075 477.326 58 479.626 57.9ZM466.726 83.55C466.726 83.55 466.726 83.8 466.726 84.3C466.726 84.8 466.726 85.05 466.726 85.05H453.001C453.001 85.05 453.001 84.8 453.001 84.3C453.001 83.8 453.001 83.55 453.001 83.55H466.726ZM468.901 73.65C468.701 76.5 468.601 78.675 468.601 80.175C468.651 81.675 468.676 83.05 468.676 84.3C468.676 85.55 468.701 86.925 468.751 88.425C468.801 89.925 468.926 92.1 469.126 94.95H467.401C467.201 93.35 466.951 91.8 466.651 90.3C466.401 88.75 465.801 87.5 464.851 86.55C463.951 85.55 462.401 85.05 460.201 85.05V83.55C461.851 83.55 463.101 83.225 463.951 82.575C464.851 81.875 465.501 81 465.901 79.95C466.301 78.9 466.576 77.825 466.726 76.725C466.876 75.575 467.026 74.55 467.176 73.65H468.901ZM470.026 41.55C471.026 40.9 471.926 40.675 472.726 40.875C473.576 41.025 474.201 41.425 474.601 42.075C475.001 42.725 475.101 43.45 474.901 44.25C474.701 45 474.076 45.725 473.026 46.425C471.976 47.075 470.751 47.675 469.351 48.225C468.001 48.725 466.401 49.35 464.551 50.1C462.751 50.8 460.551 51.8 457.951 53.1L457.426 52.125C459.726 50.375 461.601 48.85 463.051 47.55C464.551 46.2 465.826 45.025 466.876 44.025C467.926 43.025 468.976 42.2 470.026 41.55ZM540.329 57.9C540.129 59.65 539.979 61.35 539.879 63C539.829 64.65 539.804 65.9 539.804 66.75C539.804 67.65 539.829 68.525 539.879 69.375C539.929 70.175 539.979 70.85 540.029 71.4H538.304C538.004 68.45 537.579 66.125 537.029 64.425C536.479 62.675 535.529 61.45 534.179 60.75C532.879 60 530.904 59.625 528.254 59.625H522.029C520.329 59.625 519.029 59.775 518.129 60.075C517.279 60.325 516.704 60.9 516.404 61.8C516.104 62.65 515.954 64 515.954 65.85V103.05C515.954 104.85 516.104 106.2 516.404 107.1C516.704 108 517.279 108.6 518.129 108.9C519.029 109.15 520.329 109.275 522.029 109.275H527.504C530.654 109.275 533.029 108.85 534.629 108C536.279 107.15 537.454 105.775 538.154 103.875C538.904 101.925 539.454 99.3 539.804 96H541.529C541.379 97.35 541.304 99.15 541.304 101.4C541.304 102.35 541.329 103.725 541.379 105.525C541.479 107.275 541.629 109.1 541.829 111C539.279 110.9 536.404 110.85 533.204 110.85C530.004 110.8 527.154 110.775 524.654 110.775C523.554 110.775 522.129 110.775 520.379 110.775C518.679 110.775 516.829 110.8 514.829 110.85C512.829 110.85 510.804 110.875 508.754 110.925C506.704 110.925 504.754 110.95 502.904 111V109.5C504.604 109.4 505.879 109.2 506.729 108.9C507.629 108.6 508.229 108 508.529 107.1C508.829 106.2 508.979 104.85 508.979 103.05V65.85C508.979 64 508.829 62.65 508.529 61.8C508.229 60.9 507.629 60.3 506.729 60C505.879 59.65 504.604 59.45 502.904 59.4V57.9C504.754 57.95 506.704 58 508.754 58.05C510.804 58.05 512.829 58.075 514.829 58.125C516.829 58.125 518.679 58.125 520.379 58.125C522.129 58.125 523.554 58.125 524.654 58.125C526.954 58.125 529.554 58.125 532.454 58.125C535.404 58.075 538.029 58 540.329 57.9ZM527.429 83.55C527.429 83.55 527.429 83.8 527.429 84.3C527.429 84.8 527.429 85.05 527.429 85.05H513.704C513.704 85.05 513.704 84.8 513.704 84.3C513.704 83.8 513.704 83.55 513.704 83.55H527.429ZM529.604 73.65C529.404 76.5 529.304 78.675 529.304 80.175C529.354 81.675 529.379 83.05 529.379 84.3C529.379 85.55 529.404 86.925 529.454 88.425C529.504 89.925 529.629 92.1 529.829 94.95H528.104C527.904 93.35 527.654 91.8 527.354 90.3C527.104 88.75 526.504 87.5 525.554 86.55C524.654 85.55 523.104 85.05 520.904 85.05V83.55C522.554 83.55 523.804 83.225 524.654 82.575C525.554 81.875 526.204 81 526.604 79.95C527.004 78.9 527.279 77.825 527.429 76.725C527.579 75.575 527.729 74.55 527.879 73.65H529.604Z" fill="#D4AB7C"/>
<path d="M237.173 154.217C237.281 154.181 237.38 154.181 237.47 154.217C237.56 154.235 237.605 154.298 237.605 154.406L237.659 155.459C237.677 155.693 237.551 155.855 237.281 155.945C236.687 156.143 236.075 156.287 235.445 156.377C234.815 156.467 234.023 156.512 233.069 156.512C229.937 156.512 227.444 155.558 225.59 153.65C224.672 152.714 223.988 151.625 223.538 150.383C223.106 149.141 222.89 147.737 222.89 146.171C222.89 143.093 223.817 140.6 225.671 138.692C227.561 136.784 230.027 135.83 233.069 135.83C233.501 135.83 233.888 135.839 234.23 135.857C234.59 135.875 234.932 135.902 235.256 135.938C235.598 135.974 235.931 136.019 236.255 136.073C236.579 136.127 236.921 136.199 237.281 136.289C237.551 136.343 237.677 136.514 237.659 136.802L237.605 137.882C237.569 138.134 237.434 138.215 237.2 138.125C236.498 137.891 235.832 137.738 235.202 137.666C234.572 137.576 233.861 137.531 233.069 137.531C230.531 137.531 228.506 138.341 226.994 139.961C225.59 141.527 224.888 143.597 224.888 146.171C224.888 147.467 225.059 148.637 225.401 149.681C225.743 150.725 226.265 151.634 226.967 152.408C228.425 154.028 230.459 154.829 233.069 154.811C233.825 154.793 234.572 154.739 235.31 154.649C236.066 154.559 236.687 154.415 237.173 154.217ZM258.824 149.087C258.068 147.215 257.339 145.37 256.637 143.552C255.953 141.716 255.233 139.862 254.477 137.99C253.721 139.862 252.974 141.716 252.236 143.552C251.516 145.37 250.778 147.215 250.022 149.087H258.824ZM263.522 155.783C263.612 156.035 263.531 156.161 263.279 156.161H261.983C261.875 156.161 261.776 156.143 261.686 156.107C261.614 156.071 261.542 155.963 261.47 155.783L259.472 150.815H249.32C248.978 151.661 248.645 152.489 248.321 153.299C247.997 154.109 247.673 154.937 247.349 155.783C247.277 155.963 247.196 156.071 247.106 156.107C247.034 156.143 246.944 156.161 246.836 156.161H245.567C245.315 156.161 245.234 156.035 245.324 155.783L253.262 136.451C253.352 136.235 253.514 136.127 253.748 136.127H255.395C255.629 136.127 255.791 136.235 255.881 136.451L263.522 155.783ZM281.303 141.176C281.303 138.962 279.836 137.855 276.902 137.855H274.148V144.902H276.389C278.027 144.902 279.251 144.578 280.061 143.93C280.889 143.282 281.303 142.364 281.303 141.176ZM281.924 150.572C281.924 149.24 281.438 148.25 280.466 147.602C279.494 146.954 277.955 146.63 275.849 146.63H274.094V154.46H276.173C280.007 154.46 281.924 153.164 281.924 150.572ZM283.922 150.464C283.922 154.262 281.321 156.161 276.119 156.161H272.852C272.474 156.161 272.249 156.125 272.177 156.053C272.123 155.999 272.096 155.783 272.096 155.405V136.937C272.096 136.559 272.123 136.343 272.177 136.289C272.249 136.217 272.474 136.181 272.852 136.181H276.902C281.168 136.181 283.301 137.819 283.301 141.095C283.301 143.597 282.113 145.118 279.737 145.658C281.105 146.054 282.14 146.657 282.842 147.467C283.562 148.259 283.922 149.258 283.922 150.464ZM295.841 155.783C295.841 156.035 295.715 156.161 295.463 156.161H294.167C293.915 156.161 293.789 156.035 293.789 155.783V136.559C293.789 136.307 293.915 136.181 294.167 136.181H295.463C295.715 136.181 295.841 136.307 295.841 136.559V155.783ZM307.699 155.783C307.699 156.035 307.573 156.161 307.321 156.161H306.106C305.854 156.161 305.728 156.035 305.728 155.783V136.883C305.728 136.505 305.755 136.289 305.809 136.235C305.881 136.163 306.106 136.127 306.484 136.127H307.726C307.96 136.127 308.113 136.154 308.185 136.208C308.275 136.244 308.365 136.343 308.455 136.505L318.634 153.974V136.505C318.634 136.253 318.76 136.127 319.012 136.127H320.2C320.452 136.127 320.578 136.253 320.578 136.505V155.405C320.578 155.783 320.542 155.999 320.47 156.053C320.416 156.125 320.2 156.161 319.822 156.161H318.175C318.031 156.161 317.923 156.143 317.851 156.107C317.797 156.071 317.725 155.981 317.635 155.837L307.699 138.665V155.783ZM331.771 156.188C331.393 156.188 331.168 156.152 331.096 156.08C331.042 156.026 331.015 155.81 331.015 155.432V136.829C331.015 136.487 331.042 136.289 331.096 136.235C331.168 136.163 331.375 136.127 331.717 136.127H341.086C341.338 136.127 341.464 136.253 341.464 136.505V137.45C341.464 137.702 341.338 137.828 341.086 137.828H332.986V144.956H340.681C340.933 144.956 341.059 145.082 341.059 145.334V146.306C341.059 146.558 340.933 146.684 340.681 146.684H332.986V154.46H341.41C341.662 154.46 341.788 154.586 341.788 154.838V155.81C341.788 156.062 341.662 156.188 341.41 156.188H331.771ZM357.723 137.855V155.783C357.723 156.035 357.597 156.161 357.345 156.161H356.103C355.851 156.161 355.725 156.035 355.725 155.783V137.855H350.163C349.911 137.855 349.785 137.729 349.785 137.477V136.559C349.785 136.307 349.911 136.181 350.163 136.181H363.339C363.591 136.181 363.717 136.307 363.717 136.559V137.477C363.717 137.729 363.591 137.855 363.339 137.855H357.723ZM397.958 146.009C397.958 143.147 397.166 141.032 395.582 139.664C394.178 138.458 392.252 137.855 389.804 137.855H386.888V154.46H388.535C394.817 154.46 397.958 151.643 397.958 146.009ZM399.929 146.117C399.929 147.791 399.641 149.285 399.065 150.599C398.489 151.913 397.688 153.002 396.662 153.866C395.69 154.604 394.511 155.171 393.125 155.567C391.739 155.963 390.173 156.161 388.427 156.161H385.646C385.268 156.161 385.043 156.125 384.971 156.053C384.917 155.999 384.89 155.783 384.89 155.405V136.937C384.89 136.559 384.917 136.343 384.971 136.289C385.043 136.217 385.268 136.181 385.646 136.181H389.885C393.305 136.181 395.879 137.108 397.607 138.962C399.155 140.672 399.929 143.057 399.929 146.117ZM410.825 156.188C410.447 156.188 410.222 156.152 410.15 156.08C410.096 156.026 410.069 155.81 410.069 155.432V136.829C410.069 136.487 410.096 136.289 410.15 136.235C410.222 136.163 410.429 136.127 410.771 136.127H420.14C420.392 136.127 420.518 136.253 420.518 136.505V137.45C420.518 137.702 420.392 137.828 420.14 137.828H412.04V144.956H419.735C419.987 144.956 420.113 145.082 420.113 145.334V146.306C420.113 146.558 419.987 146.684 419.735 146.684H412.04V154.46H420.464C420.716 154.46 420.842 154.586 420.842 154.838V155.81C420.842 156.062 420.716 156.188 420.464 156.188H410.825ZM432.727 155.783C432.727 156.035 432.601 156.161 432.349 156.161H431.134C430.882 156.161 430.756 156.035 430.756 155.783V136.883C430.756 136.505 430.783 136.289 430.837 136.235C430.909 136.163 431.134 136.127 431.512 136.127H432.754C432.988 136.127 433.141 136.154 433.213 136.208C433.303 136.244 433.393 136.343 433.483 136.505L443.662 153.974V136.505C443.662 136.253 443.788 136.127 444.04 136.127H445.228C445.48 136.127 445.606 136.253 445.606 136.505V155.405C445.606 155.783 445.57 155.999 445.498 156.053C445.444 156.125 445.228 156.161 444.85 156.161H443.203C443.059 156.161 442.951 156.143 442.879 156.107C442.825 156.071 442.753 155.981 442.663 155.837L432.727 138.665V155.783ZM461.794 137.855V155.783C461.794 156.035 461.668 156.161 461.416 156.161H460.174C459.922 156.161 459.796 156.035 459.796 155.783V137.855H454.234C453.982 137.855 453.856 137.729 453.856 137.477V136.559C453.856 136.307 453.982 136.181 454.234 136.181H467.41C467.662 136.181 467.788 136.307 467.788 136.559V137.477C467.788 137.729 467.662 137.855 467.41 137.855H461.794ZM484.943 149.087C484.187 147.215 483.458 145.37 482.756 143.552C482.072 141.716 481.352 139.862 480.596 137.99C479.84 139.862 479.093 141.716 478.355 143.552C477.635 145.37 476.897 147.215 476.141 149.087H484.943ZM489.641 155.783C489.731 156.035 489.65 156.161 489.398 156.161H488.102C487.994 156.161 487.895 156.143 487.805 156.107C487.733 156.071 487.661 155.963 487.589 155.783L485.591 150.815H475.439C475.097 151.661 474.764 152.489 474.44 153.299C474.116 154.109 473.792 154.937 473.468 155.783C473.396 155.963 473.315 156.071 473.225 156.107C473.153 156.143 473.063 156.161 472.955 156.161H471.686C471.434 156.161 471.353 156.035 471.443 155.783L479.381 136.451C479.471 136.235 479.633 136.127 479.867 136.127H481.514C481.748 136.127 481.91 136.235 482 136.451L489.641 155.783ZM500.187 155.783C500.187 156.035 500.061 156.161 499.809 156.161H498.513C498.261 156.161 498.135 156.035 498.135 155.783V136.559C498.135 136.307 498.261 136.181 498.513 136.181H499.809C500.061 136.181 500.187 136.307 500.187 136.559V155.783ZM520.28 142.013C520.28 141.257 520.19 140.618 520.01 140.096C519.848 139.556 519.56 139.124 519.146 138.8C518.75 138.458 518.228 138.215 517.58 138.071C516.932 137.927 516.122 137.855 515.15 137.855H512.369V145.901H515.204C515.942 145.901 516.617 145.811 517.229 145.631C517.859 145.451 518.399 145.19 518.849 144.848C519.299 144.506 519.65 144.101 519.902 143.633C520.154 143.147 520.28 142.607 520.28 142.013ZM523.493 155.783C523.529 155.873 523.529 155.954 523.493 156.026C523.457 156.116 523.385 156.161 523.277 156.161H521.873C521.603 156.161 521.405 156.035 521.279 155.783C520.469 154.091 519.794 152.714 519.254 151.652C518.714 150.572 518.291 149.717 517.985 149.087C517.607 148.349 517.319 147.782 517.121 147.386C516.707 147.476 516.32 147.53 515.96 147.548C515.618 147.566 515.177 147.584 514.637 147.602H512.369V155.783C512.369 156.035 512.243 156.161 511.991 156.161H510.776C510.524 156.161 510.398 156.035 510.398 155.783V136.991C510.398 136.793 510.398 136.64 510.398 136.532C510.416 136.424 510.452 136.343 510.506 136.289C510.56 136.235 510.641 136.208 510.749 136.208C510.857 136.19 511.01 136.181 511.208 136.181H516.311C517.337 136.181 518.219 136.325 518.957 136.613C519.713 136.883 520.334 137.27 520.82 137.774C521.324 138.278 521.693 138.89 521.927 139.61C522.179 140.33 522.305 141.131 522.305 142.013C522.305 142.553 522.206 143.066 522.008 143.552C521.828 144.038 521.576 144.488 521.252 144.902C520.928 145.316 520.55 145.694 520.118 146.036C519.704 146.36 519.272 146.63 518.822 146.846L523.493 155.783ZM533.296 156.188C532.918 156.188 532.693 156.152 532.621 156.08C532.567 156.026 532.54 155.81 532.54 155.432V136.829C532.54 136.487 532.567 136.289 532.621 136.235C532.693 136.163 532.9 136.127 533.242 136.127H542.611C542.863 136.127 542.989 136.253 542.989 136.505V137.45C542.989 137.702 542.863 137.828 542.611 137.828H534.511V144.956H542.206C542.458 144.956 542.584 145.082 542.584 145.334V146.306C542.584 146.558 542.458 146.684 542.206 146.684H534.511V154.46H542.935C543.187 154.46 543.312 154.586 543.312 154.838V155.81C543.312 156.062 543.187 156.188 542.935 156.188H533.296Z" fill="#D4AB7C"/>
<line x1="201.993" y1="148.25" x2="31.9926" y2="147.25" stroke="#D4AB7C" stroke-width="2.5"/>
</svg>
