<svg width="122" height="112" viewBox="0 0 122 112" fill="none" xmlns="http://www.w3.org/2000/svg">
<path d="M34.527 39.2236L35.9303 38.4131L36.0235 38.5887C36.0784 38.6922 36.1725 38.7922 36.2346 38.8565C36.3131 38.9377 36.415 39.0353 36.5354 39.1461C36.7773 39.3686 37.1117 39.6606 37.5231 40.0103C38.347 40.7103 39.494 41.6536 40.8587 42.7577C43.5888 44.9665 47.1993 47.8266 50.8587 50.6878C54.5181 53.5491 58.2285 56.413 61.1585 58.6298C62.6233 59.738 63.8948 60.6857 64.8682 61.391C65.8228 62.0826 66.5314 62.5715 66.8432 62.7289C67.6709 63.1465 68.2301 63.4041 68.8399 63.5442C69.4479 63.6839 70.0799 63.7008 71.0405 63.6945C72.6252 63.684 73.6826 63.5155 74.8099 63.0691C75.1471 62.9356 75.7355 62.5624 76.6048 61.9513C77.4945 61.3258 78.727 60.4153 80.3774 59.1631C83.6792 56.6578 88.6695 52.7729 95.9691 47.0376L114.742 32.2872L114.812 55.7028C114.832 62.4233 114.834 68.599 114.821 73.1349C114.815 75.4031 114.805 77.2603 114.792 78.5703C114.785 79.2256 114.777 79.7424 114.769 80.1047C114.765 80.2862 114.761 80.4264 114.756 80.5248C114.755 80.5449 114.755 80.5627 114.754 80.5783C114.753 80.6013 114.751 80.6197 114.75 80.6338C114.75 80.6342 114.75 80.6347 114.75 80.6351C114.729 80.7007 114.665 80.8236 114.543 80.9748C114.415 81.1333 114.258 81.2789 114.113 81.374C114.029 81.4292 113.901 81.495 113.526 81.5549C113.139 81.6165 112.532 81.6659 111.509 81.7065C109.471 81.7873 105.868 81.8303 99.282 81.8908L84.8927 82.0231L84.6569 82.0253L84.5086 82.2085L83.9997 82.8373C83.3484 83.6421 83.0705 84.5813 83.1889 85.4818C83.3076 86.384 83.8189 87.2038 84.6621 87.772L85.568 88.3825L85.6959 88.4687L85.8501 88.4679L100.414 88.3913C107.572 88.3537 111.231 88.3322 113.249 88.2488C114.257 88.2071 114.882 88.1492 115.34 88.0595C115.817 87.9662 116.103 87.8397 116.422 87.691C118.257 86.834 119.981 85.1949 120.758 83.5283L121.376 82.2053L121.423 82.1049L121.423 81.994L121.426 54.4583C121.426 52.8005 121.426 51.2367 121.427 49.7614C121.431 37.5062 121.433 31.3523 121.227 28.0661C121.113 26.2338 120.932 25.2183 120.61 24.5189C120.348 23.9507 119.988 23.5982 119.616 23.235C119.524 23.145 119.431 23.0543 119.339 22.9595C118.695 22.2974 117.56 21.4595 116.779 21.0754L115.46 20.4265L115.357 20.3756L115.241 20.3752L77.7632 20.2429L40.5891 20.1117L38.6246 16.2813C35.1656 9.53749 33.3187 6.77385 30.2963 3.89938C28.1489 1.85709 25.997 0.829071 23.6638 0.829071C22.9032 0.829071 22.3718 0.862993 21.688 1.10398C21.0359 1.33374 20.2525 1.74967 18.9637 2.46249C9.33554 7.78797 2.72391 17.4246 0.932808 28.7125L1.42663 28.7908L0.932808 28.7125C0.291418 32.7547 0.555622 40.2285 1.48996 44.6199C2.4446 49.1066 4.01935 53.7073 6.04534 57.9302C7.04393 60.0117 10.954 66.9533 14.9053 73.7923C18.8559 80.63 22.8823 87.4251 24.1168 89.2082C32.1909 100.87 42.9416 108.434 54.5471 110.542L54.5471 110.542C56.0833 110.821 58.4816 110.94 60.8668 110.917C63.2531 110.894 65.6784 110.728 67.2701 110.419C71.9352 109.515 75.0433 108.395 78.6756 106.301C80.7724 105.092 82.0827 104.201 82.829 103.035C83.5872 101.851 83.72 100.456 83.7083 98.3953C83.7012 97.1357 83.6725 96.3079 83.5583 95.5732C83.4426 94.8292 83.2421 94.1982 82.9156 93.3277C81.834 90.4442 80.629 88.1425 78.0071 83.9268C72.7362 75.4518 68.6772 71.903 63.3832 71.6237C61.9005 71.5455 60.7753 71.6167 59.4576 72.0442C58.1623 72.4644 56.7007 73.2232 54.5326 74.4718C52.7912 75.4746 51.9238 75.9641 51.2841 76.2131C50.6904 76.4442 50.3078 76.4635 49.4898 76.4645C47.5446 76.4672 45.697 75.6641 44.0899 74.0729C43.9403 73.9248 43.6699 73.5749 43.2626 72.9757C42.8634 72.3885 42.3532 71.5929 41.7278 70.5815C40.4773 68.5592 38.7754 65.6887 36.5968 61.9286C33.0404 55.7907 29.9307 50.3774 29.6753 49.8824C29.4075 49.3631 29.2158 48.3686 29.1388 46.7159C29.0862 45.587 29.0769 44.9958 29.1479 44.5267C29.2156 44.0799 29.359 43.7264 29.6761 43.0783C30.0276 42.36 30.253 41.9916 30.8447 41.5149C31.4792 41.0038 32.5174 40.3841 34.527 39.2236ZM65.6859 103.982C62.899 104.464 58.0535 104.462 55.3879 103.979C45.8786 102.257 36.1558 95.1246 29.0208 84.5319C27.4136 82.1458 14.9143 60.6214 13.0889 57.0939C5.54148 42.5091 5.20089 28.0001 11.9976 17.7529C13.4245 15.6015 16.7866 12.0046 18.8384 10.4342C20.0194 9.5303 21.2273 8.76388 22.2291 8.25107C22.731 7.99418 23.1701 7.80664 23.5213 7.69596C23.8991 7.57686 24.0897 7.57518 24.1436 7.58873C24.4576 7.66753 24.9191 7.94901 25.5133 8.4973C26.0938 9.03303 26.7537 9.77866 27.4659 10.7069C28.8891 12.5621 30.492 15.1085 32.0542 18.066C33.9884 21.7275 35.1225 24.5747 35.5157 26.7482C35.908 28.9161 35.5495 30.3161 34.632 31.2225C34.5674 31.2863 34.4092 31.4122 34.1489 31.5965C33.8978 31.7742 33.5757 31.9898 33.2037 32.2292C32.4601 32.7076 31.5282 33.2742 30.5891 33.8121C29.6256 34.364 28.6166 35.0004 27.7608 35.5852C26.9153 36.1632 26.1884 36.7116 25.8112 37.0857L26.1633 37.4407L25.8112 37.0857C22.0145 40.8511 21.1758 47.85 23.813 53.0544C24.3045 54.0244 27.5549 59.682 30.784 65.2428C34.0104 70.799 37.2553 76.3272 37.7343 77.0272C39.4488 79.5322 42.9417 81.8813 46.1892 82.7455C47.2185 83.0194 48.4876 83.1462 49.6991 83.137C50.906 83.1278 52.1025 82.9834 52.9777 82.6864C53.3763 82.5512 54.1207 82.2002 54.9762 81.7623C55.8435 81.3183 56.8575 80.7681 57.8106 80.2178C59.8411 79.0456 61.1103 78.4292 62.0944 78.2092C63.0234 78.0014 63.7108 78.1444 64.61 78.6031C66.9998 79.8223 69.4752 82.6973 73.0781 88.6445C75.4947 92.6336 76.7424 95.4771 77.1375 97.7837C77.2068 98.1883 77.2552 98.4828 77.2818 98.7099C77.3087 98.9406 77.3082 99.0657 77.2971 99.1415L77.2964 99.1459C77.2859 99.2185 77.2804 99.2564 76.996 99.4867C75.9252 100.354 74.1312 101.301 72.0676 102.124C70.012 102.944 67.7301 103.625 65.7071 103.978L65.6859 103.982ZM40.7116 34.2872L40.435 34.7037L40.7116 34.2872C40.6602 34.2531 40.6207 34.2265 40.5901 34.2054C40.5919 34.2016 40.5938 34.1977 40.5958 34.1937C40.6532 34.0775 40.7426 33.9223 40.8786 33.6877C41.7464 32.1909 42.3179 29.8954 42.3179 27.9709V26.7991H77.0641C91.8616 26.7991 100.655 26.8134 105.708 26.8652C108.223 26.8909 109.804 26.9259 110.735 26.9725C110.48 27.1761 110.172 27.4202 109.818 27.7009C108.75 28.5461 107.26 29.7215 105.486 31.1176C101.939 33.9095 97.2609 37.5828 92.5719 41.2587C83.1804 48.6212 73.7816 55.9665 73.3028 56.2983C72.8009 56.646 72.0748 56.8773 71.3319 56.9438C70.5825 57.0109 69.902 56.903 69.475 56.6632L69.4748 56.6631C69.4727 56.6618 69.443 56.643 69.3694 56.591C69.3006 56.5424 69.2082 56.4753 69.0926 56.3899C68.8616 56.2194 68.5444 55.9809 68.1501 55.6812C67.3619 55.0823 66.2706 54.2431 64.9553 53.2249C62.3249 51.1887 58.8013 48.4388 55.0198 45.4668C51.2373 42.494 47.7398 39.7524 45.1519 37.73C43.8579 36.7188 42.7911 35.8872 42.0296 35.2963C41.2824 34.7166 40.8036 34.3483 40.7116 34.2872Z" fill="#D4AB7C" stroke="#D4AB7C"/>
</svg>
